<?xml version="1.0" encoding="utf-8"?>
<!-- Generator: Adobe Illustrator 18.1.1, SVG Export Plug-In . SVG Version: 6.00 Build 0)  -->
<svg version="1.1" id="Ebene_1" xmlns="http://www.w3.org/2000/svg" xmlns:xlink="http://www.w3.org/1999/xlink" x="0px" y="0px"
	 viewBox="0 0 1000 1000" enable-background="new 0 0 1000 1000" xml:space="preserve">
<g>
	<g id="XMLID_1_">
		<g>
			<path d="M964.6,721.3c0,2.7,0,5.4,0,8.6C964.6,726.7,964.6,724,964.6,721.3c-0.4-0.4-0.8-0.9-1.2-1.4
				C963.8,720.4,964.2,720.9,964.6,721.3z"/>
			<path d="M962.5,718.9c0.3,0.3,0.5,0.7,0.8,1C963.1,719.6,962.8,719.2,962.5,718.9z"/>
			<path fill="#FFFFFF" d="M902.3,729.8c13-10.3,27-13.3,43.3-5.7c0,4.6,0.6,10.4-0.2,16c-0.8,5.3-3.4,10.4-4.4,15.7
				c-0.9,4.7-0.8,9.6-1.3,15.5c-4.7-0.7-9.6,2-14.6-2.2c-1.9-1.6-6.1-0.6-9.2-0.3c-9.2,1-16.2-2.5-21.4-9.2
				C891.2,747.8,898.6,739,902.3,729.8z"/>
			<path d="M829.7,734c5.2,0,10.1,0,16.2,0c-1.6,3-2.7,5.1-4.3,8c-10.3-3.9-15.5,7.5-26.2,8.4c-1.6,1.9-4.2,5-6.5,7.9
				c-8.9-2-13,6.5-21.7,8.4c1.8-5.2,1.9-9.4,6-11.4c10.5-5.2,18.6-14.7,31-16.6C826.4,738.4,828.2,735.4,829.7,734z"/>
			<path d="M626,755.2c-7.8,3.2-13.5,5.5-20.2,8.2c-1.2-3.1-2.3-6.2-3.4-9.2c1.7-0.9,2.4-1.6,3.1-1.6c4.7-0.3,9.3,0.1,13.9-2.6
				c5.7-3.3,12.5-3.1,19.1-3c14.9,0.3,29.8,0.1,43.8,0.1c10,6.4,19.3,12.4,28.8,18.4c0.4-0.4,1.4-1.3,2.9-2.7
				c20.7,13.3,42.3,16.5,64.9,3.7c1.1,1.1,2.4,2.4,3.8,3.8c-1.8,1.3-3.5,2.7-5.3,3.9c-1.4,0.9-3,1.5-5.4,2.7
				c-6.8-1.9-12.8,3.5-19.7,5.1c-7.3,1.6-15.2,0.4-23.2,0.4c-3.4-6.2-9.5-8.4-16.4-10.2c-4.3,3-9.3,2.6-15,0.4
				c-5.1-2-8.3-7.5-14.8-7.3c-1.5,0-3.2-5.4-5.8-10c-8.1-0.9-17.3,1.1-26.4-2.4c-3.8-1.5-9.1-1.4-13.9,1.9
				C633.8,757,628,755.2,626,755.2z"/>
			<path fill="#FDDF50" d="M584.6,445.4c3.6,2.5,6.7,4.6,9.4,6.5c1.2,6.1,2.6,12,3.5,17.9c0.8,5.3,2.8,11.2,1.3,15.9
				c-2.1,6.5-1.4,11.7,1.5,17.1c-1,1.6-1.9,3-3,4.8c0.9,1.7,1.9,3.5,3.3,6c-0.9,1.1-2.8,2.3-2.9,3.7c-1.4,21.7-2.5,43.5-3.7,66.1
				c-0.5,0.5-1.8,1.8-3,3c-8.6,0-17,0-26.3,0c1.2-7.8-1.9-14.5-3.8-21.5c-2-7.4-3.4-15.1-4.1-22.7c-0.7-7.6,0.2-15.4-0.3-23.1
				c-0.4-6.4-2.1-12.8-2.5-19.2c-0.4-6.3,0.5-12.7-0.3-19c-0.7-5.3-3.1-10.3-5.1-16.6c8-6.2,16.6-12.8,24.7-19
				C578,445.4,581.7,445.4,584.6,445.4z"/>
			<path fill="#00953A" d="M589.3,619.5c-4.6-5.4-9-10.6-13.5-15.9c0.1-1.6,0.2-3.4,0.3-6.1c9.8,0.7,17.8,3.8,23.9,12.5
				c0,4,0,8.8,0,13.8c-1.2,1.2-2.5,2.5-5.2,5.2c0-5.4,0-8.5,0-12.3C592.5,617.9,590.9,618.7,589.3,619.5z"/>
			<path fill="#00953A" d="M573.8,413.5c7-4.3,9.2,5.4,14.8,5.1c0.4,0.8,0.8,1.7,1.2,2.5c2.8,5.9,5.6,11.8,8.7,18.6
				c-20.1-8.8-37.7-8.1-54.3,5.9c5.1-9.8,8.7-19.9,16.6-27.4c3.8,0,7.5,0,11.4,0C572.7,416.7,573.2,415.1,573.8,413.5z"/>
			<path fill="#FDDF50" d="M541,612.2c5.4-4.9,13.3-2.3,18.9-6.4c11.2,6.1,12.9,17.5,16,28.1c-1.9,1.2-1.9,6-6.7,2.6
				c-1.6-1.2-6.5,2.5-10,3.5c-6.6,1.9-12.9,4.7-20.1,4c-6.5-0.6-12.8,0-19.3,2.3c-6,2.2-13-1.9-19.3,2.7c-2.1,1.5-6.2,0-9.3,0.3
				c-3.8,0.4-7.5,1.3-12,2.2c-9.7-4.7-7.7-17.7-16.6-25.2c13.6-3.8,27.1-2.1,39.3-9.7c6,0,13.2,0,20.4,0
				C527.5,610.4,535.6,617,541,612.2z"/>
			<path fill="#FDDF50" d="M532.5,66.6c-1.4-9.1-1.4-9.1-10-10c-1.3-2.9-2.2-4.8-3.1-6.8c0.8-1.8,1.9-4,3.1-6.5c3.7,0,7.6,0,12.9,0
				c1,3.8,2.1,7.8,3.5,13.3c1.4,1,4.2,2.8,7.9,5.3c-2.5,2.3-4.7,4.5-7,6.6c-0.3-0.3-0.6-0.6-0.8-0.9c-2.3,4.5-4.5,8.9-7.1,14.1
				c0.9,1.1,1.9,2.3,3,3.6c-5.8,9.7-10.7,25.2-11.4,36.2c-1.2,0.2-2.4,0.3-5,0.7c1-5.4,1.9-10.2,2.8-15c1.1-5.5-1.4-10.9,2.2-16.7
				c2.4-3.9,0.4-10.5,0.4-17C526.7,71.4,529.8,68.8,532.5,66.6z"/>
			<path d="M476.3,951c-3.7-4.1-6.9-7.7-11.1-12.3c13-1.5,17.4-9.1,18.6-19.4c8.7-6.2,18.7-2.8,28.8-3.9c2.2,6.9-1.6,11.5-5.8,16.3
				c-1-0.8-1.9-1.5-2.8-2.2c-6.8,1.7-1.9,12.3-11.1,13.4c-0.6-1.4-1.3-3.2-2.1-5c-0.6,0.2-1.8,0.5-1.8,0.7c0.4,6.5-2.1,10.2-9.1,9.8
				C479,948.3,477.9,949.8,476.3,951z"/>
			<path fill="#B7B7B7" d="M481.7,707.2c2.9,0.8,6,1.7,10.4,2.9c-1.3,8.6-2.2,16.6-8.2,26.1c0-7.9,0-13,0-18.7c-3.1,0-5.2,0-8.2,0
				c-0.2-2.5-0.3-4.6-0.5-6.9C477.4,709.5,479.6,708.3,481.7,707.2z"/>
			<path fill="#FFFFFF" d="M484.5,599.9c-0.2-0.2-0.3-0.3-0.5-0.5C484.1,599.6,484.3,599.8,484.5,599.9z"/>
			<path fill="#FFFFFF" d="M483.5,586.9c0,3.9,0,8,0,12.1c0.2,0.2,0.3,0.3,0.5,0.5c-0.2-0.2-0.3-0.3-0.5-0.5
				C483.5,594.9,483.5,590.8,483.5,586.9z"/>
			<path fill="#00953A" d="M419.3,676.4c-1-0.1-1.9-0.2-3.9-0.5c0.8-12.4-2-25.2,4.2-37.8c10.1-5.3,19.7-13.2,34-9.9
				c0,3.3,0,6,0,8.7c11.8,5.4,7.2,16,8.3,24.3c-2.4,3.6-4.5,6.8-6.9,10.5c-4.1-9.6-7.9-18.5-11.9-27.7c-5.5,2.1-7.4,6-9.5,10.1
				c-1.9,3.8-5.2,6.9-7.5,10.5C423.6,668.5,421.5,672.5,419.3,676.4z"/>
			<path fill="#B7B7B7" d="M425.2,778.9c-1.5,1.2-6-1.5-9.2-1.8c-3.5-0.4-7.1-0.1-10.2-0.1c-4.4-7.8,6.2-3.5,4.8-8.1
				c4.4,0,8-0.4,11.5,0.1c3.3,0.4,6.6,1.4,9.7,2.7c10.1,4,20.1,4.1,30.2,0c1.2-0.5,2.6-0.1,4.9-0.1c0,4.1,0,7.1,0,11.1
				c-7.1-1.4-13.8,1.8-20.7-2.6c-2.9-1.8-8.1-1.1-11.9-0.1C431,780.9,429.2,775.7,425.2,778.9z"/>
			<path fill="#636363" d="M420.6,815.3c0,4.2,0,8.1,0,12.2c-2,1-4.2,2.2-6.6,3.4c-2.9-1.8-6.1-3.8-10.2-6.3
				c1.3-3.4,2.4-6.4,3.5-9.3C412.3,815.3,416.2,815.3,420.6,815.3z"/>
			<path fill="#77BC1F" d="M552.3,652.9c2.5-1.8,6.8-0.9,10.8-1.2c10.7,8.7,14.6,20.6,15.5,33.9c0.8,11.4,1.6,22.8,2.8,34.2
				c0.3,2.8,2.4,5.3,3.6,8c2.7,6.2,2.3,14-1,21.3c2.5,7.2,5.9,14.1,5.7,22.2c-0.1,4.5,2.1,9,3.4,13.4c1.4,4.8,2.3,10,4.7,14.3
				c2.5,4.4,4.9,8.8,6.9,13.5c4.9,11.4,4.2,23.4,3.4,35.1c-0.3,4.6-4.1,9.1-6.3,13.6c-0.7,1.5-1.4,3.1-1.6,3.7
				c-5.9,4.1-11.4,7.5-16.2,11.6c-4.5,3.8-9.4,5.2-14.9,6.9c-10.6,3.3-21.6,4.5-32,8c-9.1,3.1-18,5.3-27.7,5.4
				c-7.3,0.1-15,0.6-21.8,3c-3.4,1.2-6.5,2.4-9.9,2.2c-13.3-1.1-25.4,4.1-37.9,7.1c-6.1,1.5-12.9,1.3-17.6,6.6
				c-13.2-0.6-25.8,1.7-38.5,7.5c-1.1-4.1-3.3-8.7-3.3-13.4c0-5,0.6-10.8,3.2-14.8c2.9-4.5,0.7-8.7,2.5-13.2
				c2.4-1.8,5.3-3.9,8.3-6.1c-1.6-2.7-2.6-4.5-3.6-6.2c2.9-4.6,6.2-8.6,8.1-13.3c1.7-4.2,2-9,2.8-13.1c6.7-2,11.8,0.7,17.3,1.5
				c4.7,0.7,9.8-2,15.1-3.3c0-5.9,0-12.2,0-17.7c2.3-4.4,4.3-8.2,6.1-11.6c-1.3-4.2-2.5-7.8-3.6-11.4c2.7-1.4,5-2.6,7.9-4.1
				c4.7,6.3,8.7-0.8,13-0.4c4.2,0.4,8.3,1.1,14.1,1.9c0.6-0.3,2.9-1.4,6.4-3.1c0-1.2-0.9-4,0.1-5.4c9.7-13.8,12.4-30.3,17.7-45.7
				c2.2-6.3,3.7-12.9,6.7-19c2.8-5.7,3.3-12.2,5-18.3c1.7-5.9,5.5-10.5,6.9-16.2c0.5-2,1.4-4,2.3-6.2c-4.1-5.4-9.2-7.8-15.7-7.8
				c-9.9,0.1-19.9,0-30.7,0c-0.1-2.2-0.3-4.3-0.4-6.3c4.8-7.4,12.4-8.9,20.2-10c6.9-1,13.7-2.2,20.6-2.6c7.2-0.4,14.5,0.2,21.7-0.2
				c3.3-0.2,6.5-1.9,9.8-2.6C545.5,654,548.8,655.4,552.3,652.9z"/>
			<path fill="#B7B7B7" d="M356.9,692.1c5.4,1,10.9,1.9,16.8,3c0.5-0.5,1.5-1.4,1.5-1.4c5.8,1.6,11,3.7,16.3,4.4
				c12.2,1.6,24.7-2.4,36.7,2.4c2.7-3.5,5.1-2.8,7.6,0.4c1-0.9,1.9-1.8,2.8-2.6c1,0.9,1.9,1.9,3,2.6c0.7,0.4,1.7,0.2,3.2,0.3
				c0,3.3,0,6.7,0,10.5c-6-0.9-11.9-1.7-17.8-2.5c-4.8-0.6-10.1,1.3-14.6-1.3c-0.7-0.4-1.3-0.8-1.9-1.4c-0.4,0.1-0.8,0.3-1.2,0.5
				c-2,1-4.3,2.5-5.8,2c-14.4-5-29.4-0.4-41-2.8c-4.5-0.9-6.5-5.9-10-9.5c1.3-0.4,3.5-1.2,5.7-2
				C357.8,693.7,357.4,692.9,356.9,692.1z"/>
			<path d="M264.6,840.1c-2.3,3.5-4.6,2.3-7.9,0.4c5-5.1,10.4-7.2,15.2-9c0.3-0.1,0.7-0.2,1-0.4c8.7,1.8,6,8.3,6.9,12.9
				c4.4,0.9,8.4,1.7,13.3,2.6c1-1.6,2.5-4.1,4.3-7c3.9,0,8.4,0,13.8,0c2,2.5,4.5,5.7,6,7.7c9.2-2.9,16-2.9,24.1-0.2
				c7.3,2.4,16,0.5,24,0.5c3.1,4.5,0.9,7.6-1.8,9.9c-4.7,1.1-8.8,2-12.9,2.9c0,0.3,0.1,0.5,0.1,0.8c-0.5,0-1.1,0.2-1.3,0
				c-7.7-6-16.5-0.6-25.8-3.7c-4.2-4.3-10.2-7.9-18.4-7.2c-7.2,0.6-14.4,0.1-20.5,0.1C277.5,846.7,271.1,843.4,264.6,840.1z"/>
			<path fill="#B7B7B7" d="M373.9,739.8c-3,0.9-5.7,1.7-9.8,2.9c0-4,0-6.2,0-8.7c2.4,0,4.5,0,6.4,0c1.4-4,2.7-7.5,4-11
				c4,0,7,0,11.1,0c-0.3,2.5,0.3,5.9-1,7.1c-3.4,3.2-4.7,7.1-4.8,12.6C376.9,741.2,375.1,740.4,373.9,739.8z"/>
			<path d="M334.8,869.4c3.4,0.9,6.8,2.2,10.4,2.6c4,0.5,8.1,0.1,12.1,0.1c0.6,6.3,0.6,6.3-3.1,11.3c-5-1-10.6-1.5-15.7-3.3
				C334.4,878.7,332.8,874.8,334.8,869.4z"/>
			<path fill="#FFFFFF" d="M347.5,352.3c1.8-2.3,3-3.6,4.5-5.5c6.6,4.2,13,8.1,17,15.1c0,2.6,0,5.3,0,9.4c-1.9,1.2-4.8,3.1-7.7,5.1
				C351.2,372.5,351.2,361.4,347.5,352.3z"/>
			<path d="M262.2,883.1c1.3,1.7,3,3.8,3.9,5c18.1,2,35.8-3.7,51.9,6.4c2.5-2.2,4.7-4.2,6.8-6.1c5.9,2.3,12,3.8,12.9,12.3
				c3.6-2.6,6.3-4.7,9.7-7.2c2.4,2.1,5,4.3,8.1,6.9c-2.5,3.9-5,7.7-8,12.3c0,1.5,0,4.2,0,7.1c-4.2,4.1-8.3,8.2-12.8,12.5
				c-7.5-1.2-6.4-9.1-10.9-13.3c-3.4,4.5-6.7,8.9-10.3,13.7c-2.9-4.3-5.3-7.9-8.3-12.4c-2.7,3.5-5.1,6.7-6.7,8.7
				c-13.8,1.7-23.2-4.3-32.3-11.4c2-2.7,3.9-5.4,6.8-9.3c-4-0.3-6.5-0.3-8.9-0.8c-2.4-0.6-4.7-1.8-8-3.1c-0.5,2.6-0.9,5-1.4,7.9
				c-3.1,1.2-6.6,2.6-10.7,4.2c-2.3-2.2-4.6-4.2-6.6-6c-4.3,1.1-8.4,2.2-13.1,3.4c-2.4-2.8-4.7-5.4-7.2-8.3c2.5-1.5,5-3.1,8.2-5
				c0-4.2,0-9,0-13.6C233.3,881.6,235.2,881.5,262.2,883.1z"/>
			<path d="M347.5,352.3c3.7,9.1,3.7,20.2,13.8,24c2.9-1.9,5.8-3.8,7.7-5.1c0-4.1,0-6.7,0-9.4c-4-7.1-10.4-10.9-17-15.1
				C350.5,348.7,349.4,350.1,347.5,352.3z M365.8,396.4c-10.9,0-20.4,0-30,0c-3.9-4.2-7.8-8.5-12.7-13.8c0-5.5-0.1-12.7,0-19.9
				c0.2-12.2,14-25.8,26.4-26.1c4.1-0.1,8.1,0,12.6,0c4.5,3.5,10.1,6.6,13.8,11.1c3.3,4.1,4.4,9.8,6.6,15
				c-5.2,4.4-0.8,10.8-3.5,18.6C375.8,385.1,370.8,390.7,365.8,396.4z"/>
			<path fill="#B7B7B7" d="M338.4,720.1c4.6-2.6,9.1,2.2,14.3,3.2c0,5.2,0,10,0,15.2c-4.2,0-8.1,0-12.3,0c-2.6-2.6-5.5-5.5-8.7-8.7
				C333.6,727.1,335.6,724.2,338.4,720.1z"/>
			<path fill="#B7B7B7" d="M344,766.7c-5.8-1-11.6-1.9-17.7-2.9c0-5.6,0-10.5,0-16c4.3,0,9.1,0,15.1,0c0.8,1.2,2.4,3.5,5,7.3
				c-6,0-10.3,0-15.1,0C334.5,761.4,342.5,758.5,344,766.7z"/>
			<path d="M259,861.2c2.4-0.7,4.7-1.7,6.8-2.5c9.7,3,19.3,4.4,30.2,3.9c0.7,0.7,2.3,2.3,4,4c4.4,0,8.9,0,13.5,0
				c1.2,2.2,2.3,4.4,3.3,6.2c-2,2.4-4.1,5-6.2,7.5c-16.5-3.5-20.2-5-26.8-10.9c-0.6,0.6-1.3,1.3-1.9,1.9c-3.1-0.8-6.3-1.2-9.2-2.4
				c-2.7-1.1-5.1-3-8.7-5.2c-2.7,0-6.7,0-10.7,0c-0.1-0.5-0.1-1-0.2-1.5C254.9,861.9,257,861.8,259,861.2z"/>
			<path fill="#FFFFFF" d="M268.5,821.2c0.7-4.2,1.1-7.3,1.8-11.4c-0.2-0.2-0.8-0.9-1.4-1.6c1.4-1.4,2.6-2.6,4-4
				c10.4,0,21-1.5,31.1,0.3c18.2,3.2,36.4,1.8,54.6,2.5c3.7,0.1,7.4,2.1,11.1,2.5c4,0.4,8.2-0.4,12.2,0.3c3.2,0.5,6.3,2.4,10,3.9
				c-3,6-5.3,10.4-7.6,14.9c-10.2-3.5-10.2-3.5-26.9,2.3c-2.7-1.4-5.6-2.9-9.5-4.9c-4.9,0.3-10.8-0.8-16.8,2.3
				c-3.5,1.9-8.6,0.5-12.9-5.8c0-0.2,0-3,0-6.1c-2.7-1.7-5.1-3.3-7.6-4.9c-5.2,3.3-9.8,6.3-14.7,9.4c-3.9-4.4-9-3.5-13.7-3.1
				C278.1,818.3,274.1,819.8,268.5,821.2z"/>
			<path d="M258.6,943.5c8.1-3.1,15.8,1.3,24.8,3c-3.4,6.5-6.4,12.1-9.6,18.3c-1.5-1.1-2.3-1.7-2.6-1.9c-2.7,2.7-5.4,5.4-7.7,7.7
				c-7.5-2.3-13.4-4.1-19.3-6c0.1-1,0.3-2.1,0.4-3.1c3.1-1.1,6.3-2.2,9.8-3.4C255.6,953.9,257,949.1,258.6,943.5z"/>
			<path fill="#FFFFFF" d="M256.7,840.5c-0.4,0.4-0.8,0.8-1.1,1.2c-0.1-0.7-0.2-1.4-0.4-2.1C255.7,839.9,256.2,840.2,256.7,840.5z"
				/>
			<path d="M255.5,841.7c-2.8,1.3-5.7,2.6-8.3,3.9c2.4-1.1,4.8-2.5,5.6-6c0.8,0,1.5,0,2.2,0c0.1,0,0.1,0.1,0.2,0.1
				C255.3,840.3,255.4,841,255.5,841.7z"/>
			<path d="M255.2,839.5C255.2,839.6,255.2,839.6,255.2,839.5c0,0.1-0.1,0-0.2,0C255,839.5,255.1,839.5,255.2,839.5z"/>
			<path fill="#FFFFFF" d="M258.9,811.4c-3.2,2.7-6.2,5.4-8.6,8.8c-0.4-0.2-0.9-0.4-1.4-0.5C252.2,816.9,255.5,814.2,258.9,811.4z"
				/>
			<path d="M252.9,838.4c7.8-2.8,13.8-5,18.9-6.8c-4.8,1.7-10.2,3.9-15.2,9c-0.5-0.3-1-0.6-1.5-0.9c0,0,0-0.1,0-0.1c0,0-0.1,0-0.2,0
				C254.3,839.1,253.7,838.8,252.9,838.4z"/>
			<path fill="#FFFFFF" d="M252.8,839.5c0.1-0.4,0.1-0.7,0.2-1.1c0.7,0.4,1.4,0.8,2.1,1.1C254.3,839.5,253.5,839.5,252.8,839.5z"/>
			<path d="M251,821.7c-2.4,0.6-4.7,1.2-7.1,1.9c2.4-0.6,4.7-1.2,6.1-2.9c0.3,0.2,0.3,0.2,0.2,0.1
				C250.4,821.1,250.7,821.4,251,821.7z"/>
			<path d="M250.1,820.7c0.1,0.1,0.1,0.2-0.2-0.1C250,820.7,250,820.7,250.1,820.7C250.1,820.7,250.1,820.7,250.1,820.7z"/>
			<path d="M250,820.6C250.1,820.6,250.1,820.7,250,820.6C250,820.7,250,820.7,250,820.6C250,820.7,250,820.6,250,820.6
				C250,820.6,250,820.6,250,820.6z"/>
			<path fill="#FFFFFF" d="M250,820.6C250,820.6,250,820.6,250,820.6L250,820.6C250,820.6,250,820.6,250,820.6z"/>
			<path d="M246.7,845.8c-2.7-2.6-4.7-4.4-6.4-6.1l2.2-2c0.5,0.7,1,1.3,1.4,1.8c3.7,0,6.4,0,8.8,0c-0.7,3.6-3.2,4.9-5.6,6
				C247,845.7,246.9,845.7,246.7,845.8z"/>
			<path d="M239.8,853.1c-1.3,4.3-2.2,7.4-3.2,10.5c-6.8,0-12.5,0-18.6,0c-2.7-3.8-8-6.1-9.6-12.8c3.9-0.2,7.2-0.3,10.8-0.5
				c1.7,2.9,3.1,5.4,5,8.5c1.5-2.2,3-4.4,3.9-5.7C232.1,853.1,234.8,853.1,239.8,853.1z"/>
			<path d="M243.9,823.6c-1.8,1.9-6.1,4-9-0.3c-1,0.8-1.9,1.7-2.5,2.3c-2-1-3.9-2-6.5-3.3c0-2.6,0-6,0-10.7
				c4.4,1.4,8.3,2.6,11.4,3.6c2,3.1,3.5,5.6,4.8,7.6c2.8-1.1,5.2-1.9,7.5-2.8c0.2,0.2,0.3,0.4,0.5,0.5c0,0,0,0,0,0c0,0,0,0,0,0.1
				C248.6,822.4,246.2,823,243.9,823.6z"/>
			<path fill="#FFFFFF" d="M230.5,348.5c0.8-0.6,1.7-1.1,2.5-1.7c1.8,1.8,3.6,3.6,6.4,6.4c-1.2-3.2-2-5.3-2.8-7.2
				c1.1-2.1,2.2-4.3,3.8-7.4c3.8,1.4,7.7,2.8,11.7,4.2c0.3,9.3,1.7,18.7-7.1,26.8c-3.2-1-7.1-2.3-10.7-3.4
				C229.9,360.7,233.5,354,230.5,348.5z"/>
			<path fill="#FDDF50" d="M217.2,154.1c1.1-7.4-2.4-14.9,2.2-22.8c2-3.4,0.5-8.8,0.4-13.4c-0.1-6.1-0.4-12.2,3.7-17.5
				c1-1.3,1.7-3.1,1.7-4.7c-0.5-10,2.3-20.3-4.4-32.5c4.8,2.3,6.7,3.6,8.9,4.1c2,0.5,4.2,0.1,5.1,0.1c-1.8,24.1-3.9,47.3-8.5,70.2
				c0.7,4.9,1.6,10.4,2.5,16.3C224.4,154.1,221.3,154.1,217.2,154.1z"/>
			<path fill="#FDDF50" d="M220.2,25.6c3.8-8.9,14,0.1,18.2-8c5.7,5.4,9.9,9.4,14.5,13.8c-1.8,3.7-3.7,7.3-5.7,11.3
				c2.4,0,4.5,0,8.7,0c-4.2,5.3-3.8,12-12.3,11.6c-2.2-0.1-4.6,3.5-7.3,5.7c-2.5-3.1-4.4-6.4-7.2-8.6c-2.5-1.9-6.1-2.6-9.4-3.9
				C222.1,39.9,225.2,32.6,220.2,25.6z"/>
			<path fill="#FFFFFF" d="M226.3,512.3c0.7,0.2,1.4,0.4,2,0.5C227.7,512.7,227,512.5,226.3,512.3z"/>
			<path fill="#FFFFFF" d="M224.3,511.7c0.7,0.2,1.3,0.4,2,0.6C225.6,512.2,225,511.9,224.3,511.7z"/>
			<path fill="#B7B7B7" d="M217.8,768.3c-0.2-0.7-0.6-1.9-1.2-3.9c7.1-2.2,13.8,1.4,20.5,2.1l-0.3,3.4
				C230.6,769.4,224.3,768.8,217.8,768.3z"/>
			<path d="M234.4,366.2c3.7,1.2,7.5,2.4,10.7,3.4c8.8-8.2,7.4-17.5,7.1-26.8c-4-1.4-7.9-2.8-11.7-4.2c-1.5,3-2.7,5.3-3.8,7.4
				c0.7,1.9,1.5,4,2.8,7.2c-2.9-2.9-4.7-4.7-6.4-6.4c-0.8,0.6-1.7,1.1-2.5,1.7C233.5,354,229.9,360.7,234.4,366.2z M203.6,380.1
				c-7.4-11.9-7.6-16.9-1.4-29.7c2.8-5.7,3.9-13.1,12-15.3c2.6-0.7,4.5-4.2,7.8-7.4c4.1,1.2,7.8,2.2,11.8,3.3
				c8.7-4.1,18.7-0.8,29.5,10.1c-0.5,13.8,2.3,28-6.4,40.4c-2.8,2.3-6.3,4.3-8.7,7.2c-4.6,5.4-10.9,6.8-17.1,7.7
				C217.8,398.3,209.8,390.1,203.6,380.1z"/>
			<path d="M218.6,844.8c-1.8-1.6-4.1-3.7-6.3-5.7c-2.2,1.2-4,2.2-5.6,3.1c-3.6,0-5.1-3.2-5.3-10.9c6.2,0,12.6,0.7,18.7-0.2
				c5.7-0.8,11.2,3.9,17.3-0.1c1.8,2.3,3.6,4.7,5.2,6.7l-2.2,2c-3.8,0.9-7.6,1.7-11.3,2.6C225.7,843,222.5,843.9,218.6,844.8z"/>
			<path fill="#FFFFFF" d="M349.5,336.7c-12.3,0.3-26.1,13.9-26.4,26.1c-0.1,7.2,0,14.4,0,19.9c4.9,5.3,8.8,9.6,12.7,13.8
				c9.7,0,19.2,0,30,0c5-5.7,9.9-11.3,13.2-15c2.7-7.8-1.7-14.3,3.5-18.6c-2.2-5.2-3.3-10.9-6.6-15c-3.7-4.6-9.3-7.6-13.8-11.1
				C357.6,336.6,353.5,336.6,349.5,336.7z M256.9,381.5c8.7-12.3,6-26.6,6.4-40.4c-10.8-10.9-20.8-14.2-29.5-10.1
				c-4.1-1.1-7.7-2.2-11.8-3.3c-3.2,3.2-5.1,6.7-7.8,7.4c-8.1,2.2-9.2,9.5-12,15.3c-6.2,12.8-6,17.8,1.4,29.7
				c6.2,10,14.2,18.2,27.5,16.2c6.2-0.9,12.5-2.3,17.1-7.7C250.6,385.8,254.1,383.8,256.9,381.5z M255.7,260.5c1.3-0.1,2.8-0.4,4,0
				c4.3,1.6,9.6,5.8,12.6,4.5c5.1-2.2,9.3,0.5,12.6,1.4c4.4,1.3,9.1,2.1,13.6,3.1c12.4,2.8,24.5,6.5,36.7,9.8
				c13.2,3.6,27.1,3.6,40.1,8.1c1.7,0.6,3.6,0.6,5.6,0.5c0.8,0,1.6-0.1,2.3-0.2c0.2,0,0.3,0,0.5,0c0.8-0.1,1.6-0.1,2.4-0.1
				c0.3,0.1,0.6,0.2,0.8,0.3c1.1,0.5,2.2,1.1,3.3,1.7c0.5,0.3,1.1,0.6,1.6,0.9c4.2,2.4,8.4,4.2,14.3,0.3c3.4-2.3,10.4-2.1,14.5-0.2
				c7.9,3.7,15.7,1.4,23.6,2.6c3,3.4,8.2,5.7,6.5,12.4c-1.3,0.4-2.8,1-4.8,1.6c-0.2,1-0.4,2.3-0.8,4.9c2.9-0.8,5-1.3,7.9-2.1
				c3.9,11.7,10.3,23.4,8.9,37.3c-0.6,6.3-0.8,12.8,0,19c1.3,9.9-2.8,19.1-2.9,28.7c-3.8,2-0.2,4-0.2,5.9c-0.1,3.7-1.8,7.3-3,11.8
				c-6.4,0-11.8,0-17.5,0c-1.1,8.7-9.1,10.1-14.9,12c-11.1,3.8-20.8,11.3-32.9,12.4c-17.4,11.4-36.9,11.6-56.6,10.9
				c-1.3,0-2.7,0-3.7,1.1c-6.7,2.4-13.2,6-20.1,6.8c-8.6,1-16.4,5.3-24.9,5.6c-14,0.5-28.2,1.4-42-0.4c-7.8-1-15.8-6.1-22.3-11.2
				c-8.2-6.3-15.7-13.9-22.1-22c-6.5-8.3-11.2-17.9-16.3-26.5c-1.7-20-2.1-39.7-4.1-58.9c-2.2-20.6-1.4-41-1.8-61.4
				c-0.3-12.1,3.7-22.8,17.5-26.2c0.8-0.2,1.3-1.2,1.3-1.2c4.6,0.4,9.2,2.1,12.5,0.7c9.3-4,17.5-2.6,25.9,2.2
				C241.1,260.8,245.3,261.3,255.7,260.5z"/>
			<path fill="#FFFFFF" d="M217.6,509.2c0.8,0.3,1.6,0.6,2.4,0.9C219.2,509.8,218.4,509.5,217.6,509.2z"/>
			<path fill="#FFFFFF" d="M214.4,508c0.6,0.2,1.1,0.4,1.7,0.6C215.5,508.4,215,508.2,214.4,508z"/>
			<path fill="#FFFFFF" d="M338.5,880.1c5.1,1.8,10.7,2.3,15.7,3.3c3.7-5,3.7-5,3.1-11.3c-4,0-8.1,0.4-12.1-0.1
				c-3.6-0.4-7-1.7-10.4-2.6C332.8,874.8,334.4,878.7,338.5,880.1z M263.7,863.8c3.6,2.2,6,4.1,8.7,5.2c2.9,1.2,6.1,1.6,9.2,2.4
				c0.6-0.6,1.3-1.3,1.9-1.9c6.6,5.8,10.3,7.3,26.8,10.9c2.1-2.5,4.2-5.1,6.2-7.5c-1-1.8-2.1-4-3.3-6.2c-4.6,0-9.1,0-13.5,0
				c-1.7-1.7-3.3-3.3-4-4c-10.9,0.5-20.5-0.9-30.2-3.9c-2,0.8-4.3,1.8-6.8,2.5c-2,0.6-4.1,0.7-6.1,1.1c0.1,0.5,0.1,1,0.2,1.5
				C257,863.8,261,863.8,263.7,863.8z M208.3,850.8c1.6,6.6,7,9,9.6,12.8c6.1,0,11.9,0,18.6,0c0.9-3.1,1.9-6.2,3.2-10.5
				c-5,0-7.7,0-11.7,0c-0.9,1.4-2.4,3.5-3.9,5.7c-1.8-3.1-3.3-5.7-5-8.5C215.6,850.5,212.2,850.6,208.3,850.8z M201.4,831.4
				c0.2,7.7,1.8,10.9,5.3,10.9c1.6-0.9,3.4-1.9,5.6-3.1c2.3,2.1,4.5,4.1,6.3,5.7c3.9-1,7.1-1.8,10.4-2.6c3.7-0.9,7.4-1.7,11.3-2.6
				c1.8,1.7,3.7,3.5,6.4,6.1c0.2-0.1,0.4-0.2,0.5-0.2c2.6-1.2,5.5-2.5,8.3-3.9c0.4-0.4,0.8-0.8,1.1-1.2c3.3,1.9,5.6,3.1,7.9-0.4
				c6.5,3.3,12.9,6.6,20.1,10.3c6.1,0,13.4,0.4,20.5-0.1c8.2-0.6,14.2,2.9,18.4,7.2c9.3,3.1,18.2-2.3,25.8,3.7c0.3,0.2,0.9,0,1.3,0
				c0-0.3-0.1-0.5-0.1-0.8c4.1-0.9,8.2-1.8,12.9-2.9c2.6-2.3,4.9-5.4,1.8-9.9c-8,0-16.7,1.9-24-0.5c-8.1-2.7-14.9-2.7-24.1,0.2
				c-1.5-2-4-5.1-6-7.7c-5.4,0-9.8,0-13.8,0c-1.8,2.9-3.3,5.4-4.3,7c-4.9-1-8.9-1.8-13.3-2.6c-0.9-4.6,1.8-11.2-6.9-12.9
				c-0.3,0.1-0.7,0.2-1,0.4c-5.2,1.9-11.2,4-18.9,6.8c0,0.4-0.1,0.8-0.2,1.1c-2.5,0-5.2,0-8.8,0c-0.4-0.6-0.9-1.2-1.4-1.8
				c-1.5-2-3.4-4.3-5.2-6.7c-6.1,4-11.6-0.7-17.3,0.1C213.9,832.1,207.6,831.4,201.4,831.4z M256.1,904.3c3.4,1.3,5.6,2.6,8,3.1
				c2.4,0.6,4.9,0.5,8.9,0.8c-2.9,3.9-4.8,6.6-6.8,9.3c9.2,7,18.5,13.1,32.3,11.4c1.5-2,4-5.1,6.7-8.7c3,4.5,5.4,8.1,8.3,12.4
				c3.7-4.9,7-9.3,10.3-13.7c4.5,4.2,3.5,12.1,10.9,13.3c4.5-4.4,8.6-8.5,12.8-12.5c0-2.8,0-5.5,0-7.1c3-4.6,5.5-8.4,8-12.3
				c-3-2.6-5.7-4.8-8.1-6.9c-3.5,2.6-6.2,4.6-9.7,7.2c-1-8.5-7-10-12.9-12.3c-2.1,1.9-4.3,3.9-6.8,6.1c-16.1-10-33.8-4.3-51.9-6.4
				c-1-1.2-2.6-3.3-3.9-5c-27.1-1.6-29-1.4-36.9,3.8c0,4.5,0,9.4,0,13.6c-3.2,1.9-5.7,3.5-8.2,5c2.5,2.9,4.8,5.5,7.2,8.3
				c4.7-1.2,8.8-2.3,13.1-3.4c2,1.8,4.2,3.9,6.6,6c4.1-1.6,7.6-3,10.7-4.2C255.2,909.3,255.6,906.9,256.1,904.3z M258.2,823.3
				c1.8-1,3.6-2,4.6-2.5c7.5,3.6,14.3,6.9,21.9,10.6c4.4,0,9.8,0,16.1,0c1.3-1.6,2.9-3.7,4.3-5.4c3,0,5.2,0,8.5,0
				c5.2,9,18.5,4.6,25.1,14.4c12.3-1,25-2,37.8-3c1.1,1.1,2.5,2.3,4.1,3.9c-2.6,6.4-2.4,13.5-3.6,20.2c-1.1,6.5-5.4,12.5-5,19.6
				c-6,5.8,0.5,15-5.4,20.8c0.7,7.1-3.3,13.3-3.1,20.6c0.2,6.5-2.8,13.1-4.5,19.9c-3.1-0.9-5.3-2-7.5-2.2c-6-0.4-12.2,0.7-18-2.6
				c-1.5-0.9-4.7,1.1-8.5,2.3c-0.5-0.3-2.4-2.5-4-2.3c-12.1,1.6-23.8-1.9-35.5-3.2c-11.7-1.3-24-1.3-34.8-7.7
				c-7.7,4.3-16.1,2-24,2.7c-3.6-3.6-6.8-6.8-10.5-10.5c-3.1-1.8-8.4,1.6-11.4-3c-2.8,4.5-8.1,0.8-10.9,3.1
				c-4.2,3.5-8.5,1.5-12.8,2.2c-3.7,0.7-7.5,1.5-12.1,2.4c-3-5.6,1.5-9.7,4.2-15.2c1.3-14.8,3.3-30.4,10.5-44.8
				c-1.1-10.2,8-16.4,10.1-25.8c1.8-8.3,7.6-15.8,12.2-24.6c-1.6-1-3.8-2.3-8-4.9c13-1.5,23.7-1.3,33.3-4.3c10.2-3.2,19.1,2.8,29,0
				c0.1,3,0.2,4.7,0.3,6.1c-0.6,0.5-1.1,0.9-1.7,1.4c-3.4,2.8-6.7,5.5-10,8.2c0.5,0.2,0.9,0.4,1.4,0.5c-0.1,0.1-0.2,0.3-0.3,0.4
				c0,0,0,0,0,0c-0.2-0.2-0.3-0.4-0.5-0.5c-2.3,0.9-4.6,1.7-7.5,2.8c-1.3-2-2.9-4.5-4.8-7.6c-3.1-1-7-2.2-11.4-3.6
				c0,4.7,0,8.1,0,10.7c2.6,1.3,4.5,2.3,6.5,3.3c0.6-0.6,1.6-1.4,2.5-2.3c2.9,4.3,7.2,2.2,9,0.3c2.4-0.6,4.7-1.2,7.1-1.9
				c-0.3-0.3-0.5-0.7-0.8-1c0,0,0,0,0,0c2,0.3,3.9,1,6,1.7C256.8,822.7,257.5,823,258.2,823.3z"/>
			<path fill="#FFFFFF" d="M209.4,506.3c-1-0.3-2-0.5-3-0.7C207.4,505.8,208.4,506,209.4,506.3z"/>
			<path fill="#FFFFFF" d="M206.4,505.6c-0.1,0-0.2,0-0.3-0.1C206.1,505.5,206.2,505.5,206.4,505.6z"/>
			<path fill="#FFFFFF" d="M196.4,505.5c-2.2,1.4-4.3,2.8-6.5,4.1C192.1,508.3,194.2,506.9,196.4,505.5c3.4-0.7,6.6-0.6,9.7,0
				C202.9,504.9,199.7,504.8,196.4,505.5z"/>
			<path d="M189.2,960.1C189.2,960.1,189.2,960.1,189.2,960.1C189.1,960,189.1,960,189.2,960.1z"/>
			<path fill="#FFFFFF" d="M182,548.7c-1.1-1.7,0.1-5.1,0.7-7.7c0.7-3.3,1.7-6.6,2.6-10.1c5.3-1.7,11.3-3.6,17.2-5.5
				c14.6-4.4,26.5,7.7,40.6,7c1.9,1.9,3.5,3.5,4.3,4.3c8.2,1.4,15.4,2.6,22.7,3.8s14.5,2.2,21.4,3.2c2.1-2.1,3.7-3.7,5.9-5.9
				c5.7,0,11.9-0.1,18.2,0c10.5,0.3,20.6-1.4,30.5-5.1c4.4-1.6,14.2-0.1,18.9,2.1c3.9-1.8,7.6-4.4,11.5-5c9-1.5,18.2-2,27.4-2.9
				c4.7-0.4,9.5,1,14-2.5c1.6-1.3,5.1-0.2,8.3-0.2c0,2.6,0,4.7,0,8.2c2.9-0.8,5.1-1.3,8.5-2.2c3,0.7,7.6,1.8,11.8,2.8
				c3.2,3.9,6.5,7.9,10.1,12.3c0,1.2,0,3,0,4.8c1.6,1.6,3.2,3.2,5.5,5.5c-1.2,14.2,1.7,28.7,5.3,44.5c-0.5,4.5-3.6,9.8-8.5,12.4
				c-6.8,3.7-14.7,5.3-21.5,4.1c-4.4,2.1-7.6,4.3-11.2,5.3c-8.3,2.3-15.7,4.9-16.5,15.4c-0.1,1.7-3,3.2-5.1,5.3
				c0,10.7,0,21.9,0,32.6c-1.4,1.4-2.4,2.4-3.6,3.6c-6,0-12.2,0-19.5,0c-3.1-2.1-7-4.7-12.1-8.2c-2,0.5-5.3,1.4-8.6,2.1
				c-2.1,0.4-4.3,0.9-6.4,0.8c-2.4-0.2-13.9-0.6-16-0.1c-8,1.8-15.3-2.1-22.8-3.5c-8-1.6-15.5-4.9-23.9-4.4
				c-7.2,0.4-14.5-0.2-21.7,0.1c-20.5,0.8-40.7-4.4-61.3-3c-5.7,0.4-11.7-2.3-18.4-3.7c-0.2-0.2-1.2-1.2-2.7-2.7
				c-0.9-8,1-16.9-2.6-25.3c-0.9-2.2,1-5.6,1.8-8.9c-0.6-3-1.8-6.7-1.9-10.4c-0.2-14.5,0.1-29-0.2-43.4
				C184.3,561.6,186,555,182,548.7z"/>
			<path fill="#FFFFFF" d="M183.5,513.7c2.1-1.3,4.3-2.7,6.4-4.1C187.8,511,185.6,512.4,183.5,513.7z"/>
			<path fill="#636363" d="M190.1,813.3c-5,5.4-9.9,10.8-18.8,9.7c0-4.3,0-8.2,0-13.4c2.8,0,5.8,0.4,8.7-0.1
				c2.9-0.5,5.6-1.8,9.2-3.1C189.6,808.9,189.8,810.9,190.1,813.3z"/>
			<path fill="#FFFFFF" d="M177.2,517.7c2.1-1.3,4.2-2.6,6.3-4C181.4,515.1,179.3,516.4,177.2,517.7z"/>
			<path fill="#B7B7B7" d="M201.6,768.6c-14.8,0-30.5,0-45.9,0c-1.2-1.2-2.2-2.2-4.1-4.1c2.2-1.1,4.5-2.3,5.2-2.7
				c0.8-10.2,2-18.4,6.1-25.4c4-6.8,1.6-13.8,2.6-19.6c2.7-5.3,5.1-9.8,7.8-15.1c0-5.7,0-12.3,0-18.7c-1.3-1.3-2.2-2.2-3.7-3.7
				c-6.2,0-12.8,0-18.5,0c-2.2-1.8-3.5-3-4.9-4.1c1.5-1.5,2.8-2.8,4-4c8.2-1.2,16.9,1.6,25.5-2c5,4.1,12,0.7,18.4,2
				c1.2,1.2,2.5,2.5,4.8,4.8c-2.3,4.8-4.9,10.1-8.4,17.3c0,1.8,0,6,0,10.3c6.1,0,11.5,0,17.7,0c0,5.7,0,11.3,0,16
				c3,4.1,5.3,7.2,7.8,10.7c2.9,0.9,6.5,2.1,10.8,3.5c2.5-1.1,5.6-2.4,7.2-3.1c3.1-6.3,5.6-11.5,7.7-15.8c6.9,1.1,12.3,2,18.2,3
				c4.8-9.9,9.1-18.9,14.3-29.6c-0.5-1.1-1.8-3.7-3.1-6.5c-6.5,0.8-12.9-1.6-18.2,2.8c-2.8-0.9-5.7-1.8-8.4-2.6
				c-2.7-0.9-5.5-1.8-8-4.7c2.3-0.2,4.7-0.7,7-0.7c10-0.1,19.9,0.1,29.9-0.1c10.1-0.2,19.5,2.7,29.2,4.7c7.7,1.7,16.1,0.3,24.8,0.3
				c1.4,1.4,2.8,2.8,4.3,4.3c-0.8,0.8-1.1,1.4-1.5,1.4c-8.6,0.1-17.2-0.3-25.7,0.3c-7.8,0.5-15.4,2.2-24.2,3.5
				c-3.2,3.7-5.6,8.7-6.1,15.3c-0.6,7-2.4,14.5-5.8,20.5c-2.8,5-3.3,10.2-1.3,13.7c2.6,4.5,1.1,8.7,2.1,13.2
				c5.1,9.5,18.2,7.3,25.8,16.2c-5.2,1.5-9.6,1.7-12.8,3.9c-3.7,2.5-6.6-4.8-9.6,0.1c-2-2.4-3.7-3-6.7-0.8c-1.6,1.2-4.8,0.6-7.2,0.4
				c-1.1-0.1-2.2-1.6-3.3-1.7c-6.1-0.6-12.1-1.1-18.3-1.7l0.3-3.4c3,0.3,6,0.1,9-1.5c2.6-3.2,6.2-6.5,8.1-10.6c1.9-4.1,2-9,3.1-14.3
				c-2.6-1.2-5.9-2.8-9.7-4.6c-8.7,5.8-17.6,10-26.6,0.8c-4.5,0-9,0.3-13.5-0.1c-4.7-0.4-10,2.3-13.8-2.6
				c-8.8-0.4-16.9,2.1-25.2,5.4c0,4.4,0,8.3,0,13.1c8.6,7.1,19.2,9.6,29.8,8.7c3.1,1.6,5.4,2.8,8,4.1
				C205,766,203.6,767.1,201.6,768.6z"/>
			<path d="M259.7,260.6c-1.2-0.4-2.7-0.1-4,0c-10.3,0.7-14.6,0.3-21.9-3.9c-8.4-4.8-16.6-6.2-25.9-2.2c-3.3,1.4-7.9-0.3-12.5-0.7
				c0,0-0.5,1-1.3,1.2c-13.8,3.4-17.8,14.1-17.5,26.2c0.4,20.5-0.4,40.8,1.8,61.4c2,19.3,2.4,38.9,4.1,58.9
				c5.2,8.6,9.9,18.2,16.3,26.5c6.4,8.1,13.9,15.7,22.1,22c6.5,5,14.5,10.2,22.3,11.2c13.8,1.8,28,0.9,42,0.4
				c8.5-0.3,16.3-4.6,24.9-5.6c6.9-0.8,13.4-4.4,20.1-6.8c1-1.1,2.4-1.1,3.7-1.1c19.7,0.8,39.2,0.5,56.6-10.9
				c12.1-1,21.8-8.6,32.9-12.4c5.8-2,13.9-3.3,14.9-12c5.6,0,11,0,17.5,0c1.2-4.5,2.9-8.1,3-11.8c0.1-1.9-3.5-3.9,0.2-5.9
				c0.2-9.7,4.2-18.8,2.9-28.7c-0.8-6.2-0.7-12.7,0-19c1.4-13.9-5-25.6-8.9-37.3c-2.9,0.8-5,1.3-7.9,2.1c0.4-2.6,0.7-3.8,0.8-4.9
				c2-0.7,3.5-1.2,4.8-1.6c1.7-6.7-3.5-9-6.5-12.4c-7.9-1.1-15.8,1.1-23.6-2.6c-4-1.9-11-2.1-14.5,0.2c-5.9,4-10.1,2.1-14.3-0.3
				c-0.5-0.3-1.1-0.6-1.6-0.9c-1.1-0.6-2.2-1.2-3.3-1.7c-0.3-0.1-0.6-0.2-0.8-0.4c-0.8,0-1.6,0-2.4,0.1c-0.2,0-0.3,0-0.5,0
				c-0.8,0-1.6,0.1-2.3,0.2c-2,0.1-3.9,0.1-5.6-0.5c-13.1-4.5-26.9-4.5-40.1-8.1c-12.2-3.3-24.3-7-36.7-9.8c-4.5-1-9.1-1.8-13.6-3.1
				c-3.4-1-7.5-3.7-12.6-1.4C269.3,266.4,264,262.2,259.7,260.6z M165.5,391c3.5-10.2,0.7-19.7-2.8-29.2c-0.3-0.8-0.1-1.8,0-2.7
				c2.1-16.1-3.6-31.7-2.8-47.8c0.1-2.5-1.3-5-1.5-7.5c-0.3-4.2-0.4-8.5-0.3-12.8c0-0.6,1.8-1.4,1.7-1.9c-1.1-9.4,1.9-18.2,3.3-27.9
				c6.8-5.9,13.9-12.6,21.7-18.5c3.2-2.4,7.8-3,11.7-4.4c22.1-7.5,37-5.4,56-1.1c12.4,2.8,24.4,6.9,36.7,9.9
				c16.7,4.1,33.2,9.5,49.7,14.4c7.6,2.3,15.2,4.7,22.8,7.2c1.2,0.4,2.1,1.5,3.6,2.5c3.9,1.4,9.5-2.2,13.2,2.7
				c3.9-4.5,9.1-2.2,13.8-2.5c4.5-0.3,9-0.1,13.6-0.1c5,0,10.1-0.7,14.9,0.2c3.5,0.6,6.2-4.3,10.3-0.5c1.4,1.3,5.9-1.2,8.9-0.9
				c12.1,1.3,21.5,8,29.5,15.6c0.9,17.2,7,33.2,5.9,50c-1.2,16.8,1.7,33.8-2.3,52.9c0.2,1.2,7.2,1.8,4.2,7.3c-1.3-0.6-2.5-1.2-4-1.9
				c-1.4,9.6-2.8,19-4.2,29.1c-7.1,5.3-15.1,10-24.3,8.6c-7.8,4.9-15.9,6.3-23.1,9.4c-13.5,6-27.8,9.3-41.4,14.7
				c-9,3.5-18.6,5.7-28.8,6.3c-10,0.6-20.6,2.2-30.2,5.2c-9.7,3-20.2,2.3-29.5,7.5c-3.1,1.7-8,0.3-12.1,0.3
				c-5.9,0-11.8-0.6-17.6,0.1c-10.3,1.3-19.9-3.7-30.2-3c-25-15.1-45.9-34.9-63.4-57.2c-0.7-7,1.2-13.3-2.8-18.9
				C164.7,395.1,165,392.6,165.5,391z"/>
			<path fill="#77BC1F" d="M163.9,943.2c-0.6-0.7-2-0.8-3.6-0.8l-0.1-2c3.9-0.3,7.6-2.9,11.5-4.9c9.9,0.8,19.6,6.9,31.7,3.1
				c0.2,0.1,1.9,1.1,3.5,2c1.5-1.4,2.4-2.3,3.6-3.3c8.7,5.4,18.8,1.4,28.2,4.8c-1.9,0.2-3.8,0.6-5.7,0.7
				c-13.6,0.9-27.3,1.9-40.9,2.7c-5,0.3-10.2,6.1-14.7,1.9C173.2,943.7,167.6,948,163.9,943.2z"/>
			<path fill="#77BC1F" d="M162.8,361.7c3.5,9.5,6.3,19,2.8,29.2c-0.6,1.6-0.8,4.1,0,5.3c4,5.6,2.1,11.9,2.8,18.9
				c17.5,22.4,38.4,42.1,63.4,57.2c10.3-0.7,19.9,4.3,30.2,3c5.8-0.7,11.7-0.1,17.6-0.1c4.1,0,9,1.5,12.1-0.3
				c9.3-5.2,19.8-4.5,29.5-7.5c9.7-3,20.2-4.7,30.2-5.2c10.2-0.6,19.8-2.8,28.8-6.3c13.6-5.3,27.9-8.7,41.4-14.7
				c7.2-3.2,15.2-4.6,23.1-9.4c9.2,1.4,17.2-3.3,24.3-8.6c1.5-10.2,2.8-19.6,4.2-29.1c1.5,0.7,2.7,1.3,4,1.9c3-5.5-3.9-6.1-4.2-7.3
				c4.1-19.1,1.2-36.1,2.3-52.9c1.2-16.8-4.9-32.8-5.9-50c-8.1-7.6-17.4-14.3-29.5-15.6c-3-0.3-7.5,2.2-8.9,0.9
				c-4.1-3.8-6.8,1.1-10.3,0.5c-4.8-0.9-9.9-0.2-14.9-0.2c-4.5,0-9.1-0.3-13.6,0.1c-4.6,0.3-9.8-2-13.8,2.5
				c-3.8-4.9-9.3-1.3-13.2-2.7c-1.5-1.1-2.4-2.2-3.6-2.5c-7.6-2.5-15.2-4.9-22.8-7.2c-16.5-4.9-32.9-10.3-49.7-14.4
				c-12.3-3-24.3-7.1-36.7-9.9c-19-4.3-33.9-6.4-56,1.1c-3.9,1.3-8.6,1.9-11.7,4.4c-7.7,5.8-14.8,12.5-21.7,18.5
				c-1.4,9.7-4.4,18.6-3.3,27.9c0.1,0.6-1.7,1.3-1.7,1.9c-0.1,4.3,0,8.5,0.3,12.8c0.2,2.5,1.6,5,1.5,7.5c-0.8,16,4.9,31.7,2.8,47.8
				C162.6,359.9,162.5,360.9,162.8,361.7z M138,290c2.2-11.6-7.7-21.8-4.8-33.2c-8.2-8.1-6-16.8-3.1-25.7
				c5.1-15.6,16.1-24.4,31.9-28.5c4.6-8.8,14.4-15.7,30.1-21c4,2.2,8,4.4,12.1,6.6c2.7-5.3,4.8-9.4,6.4-12.3
				c8.2-4.2,15.2-8.1,22.4-11.5c6.8-3.2,13.9-5.9,23.2-9.8c13.6-0.9,29-5.8,44-11.7c3.5-1.4,6.7-1.5,10-2.1c3.3-0.7,6.5-1.8,9.8-2.6
				c7-1.8,13.9-3.5,21-5.3c0.8,0.7,1.7,1.6,1.9,1.7c8.6-2.6,16.7-7.1,24.7-6.9c13.5,0.3,26.4-4.6,39.6-2.9
				c6.6,0.8,11.7-3.9,18.3-2.9c0.5,1.4,1,3,1.6,4.5c9.6-1,18.2-7.5,29.1-2.3c8.5,4,18.5,3.9,27.5,9.3c9.7,5.8,13.5,15.9,21.7,22.4
				c0,3.7,0,7.3,0,10.4c3.7,2.7,7.2,5.3,9.7,7.1c1.4,7,2.6,12.9,3.7,18.8c2.9,0.3,5.1,0.5,7.2,0.7c2,4.3,4.7,8.3,3.9,13.4
				c-0.2,1.3-0.6,3.1,0.1,4c8.6,11.2,5.3,25.7,10.6,37.8c0.6,1.4-1.2,3.9-1.5,4.8c2.5,5.8,6.4,11,6.8,16.5c1,13.1,2.2,26.6-0.3,39.3
				c-1.9,9.8-1.2,19.3-2.4,30c-1.4,1-3.6,2.6-5.6,4c6.3,9.1,8.5,17.9,3.7,27.5c-0.2,0.4-0.6,0.8-0.6,1.1c1.8,9.4-3.1,18.2-2.7,27.4
				c0.1,2.8,1.3,5.6,2.4,10.1c-0.8,0.8-2.5,2.7-4.8,5.2c0,3.3,0,7.2,0,9.5c-3.4,6.4-7.2,11-8.2,16.1c-1.1,6-4.2,10.1-7.4,14.7
				c-2.8,4.1-5.3,9-3.5,14.6c4.7,2.5,9.5,5,15.8,8.4c4.2,7.6,6.5,17.4,5.7,28.1c-0.8,10.5,0.5,20.8,4.8,30.6
				c0.8,1.9,0.8,4.4,0.5,6.5c-1.1,7.6,2.5,14.5,3.7,21.7c1.5,8.9,5,17.4,4.5,27.6c-11.2-0.7-21.6,3.6-32.4,5.8
				c-10.5,2.2-20.9,4.3-30.6,6.2c-1.7-1.7-2.9-2.9-3.9-3.9c-0.2-0.2-0.3-0.3-0.5-0.5c-0.2-0.2-0.3-0.3-0.5-0.5c0-4.1,0-8.2,0-12.1
				s0-7.6,0-11c-3.1-7.8-6.9-13.6-8.7-21c-2-8.3-8.4-15.4-12.4-23.3c-3.9-7.8-10.4-12-20-15.2c-11.2-0.3-24.4-7.4-37.7-0.3
				c-4.6-3.7-10.5-4.2-15-2.3c-9.1,3.8-18.2,4.7-27.8,5.2c-6.7,0.4-13.4,2.5-20,4.2c-6.4,1.7-42.2,1.1-49.1-0.5
				c-3.2-0.8-7.3-1.3-9.9,0.1c-5.3,2.7-11.7,3-15.4,0.9c-5.5-3.1-10.5-0.8-15.2-2.3c-6.4-2.7-12.4-7.2-18.8-7.6
				c-1.8-0.1-3.5-0.4-5.2-0.8c-0.7-0.2-1.4-0.4-2-0.5c-0.7-0.2-1.4-0.4-2-0.6c-1.4-0.5-2.8-1-4.3-1.6c-0.8-0.3-1.6-0.6-2.4-0.9
				c-0.5-0.2-1-0.4-1.5-0.6c-0.6-0.2-1.1-0.4-1.7-0.6c-1.7-0.6-3.3-1.2-5-1.7c-1-0.3-2-0.5-3-0.7c-0.1,0-0.2,0-0.3-0.1
				c-3.1-0.6-6.3-0.7-9.7,0c-2.2,1.4-4.3,2.8-6.5,4.1c-2.1,1.4-4.3,2.7-6.4,4.1c-2.1,1.4-4.2,2.7-6.3,4c-2.1,1.3-4.1,2.6-6,3.9
				c-1.2,9,1.4,17-2.8,24.7c-1,1.8,2.5,5.5,2.3,8.2c-1,12.3,1.9,24.6-2.1,37.1c-1.9,6-2.2,13.8,1.6,20.8c1.7,3.1,0.9,7.9,0.5,11.9
				c-0.9,9.4,3.3,18,3.7,27.1c0,0.7,1.2,1.3,1.9,2c-1.3,1.2-2.6,2.5-4.1,3.9c-3.4,0-6.9,0-10.9,0c-1.7-1.6-3.6-3.5-5.5-5.3
				c-5.5,0-10.9,0-15.3,0c-3.4,2.3-6.1,4.1-9.9,6.7c0-8.3,0-15,0-22.6c1.8-1.1,4.3-2.8,4.8-3.1c8.5-8.5,4.7-18.3,7.7-27.1
				c2.8-8.1-0.4-18.1,0.9-26.9c1.3-9-8.2-17.6-0.5-26.4c-0.8-0.9-2.5-1.9-2.4-2.9c1-15.6-4.9-30.8-2.8-46.4
				c0.4-2.8,1.2-5.6,2.1-10.1c-4.5-4.3-2.5-10.4,1.1-15.9c-1.4-1.5-2.3-2.5-3.1-3.3c5.3-5.9,0.8-13,3-18.7c-2.2-2.2-3.8-3.8-5.7-5.7
				c0.7-0.9,1.3-2,2.3-2.6c3.8-2.7,7.6-5.3,11.7-8.1c-5.6-4.4-1.9-9.9-3.6-14.3c-2.4-3.6-4.9-7.2-7.7-11.3c2.3-6.1,5-12.9,0.8-20.3
				c-1.2-2.1-0.8-5.2-0.8-7.8c-0.1-7.7,0.3-15.4-0.1-23.1c-0.4-6.9-2.1-13.7-2.5-20.6c-0.4-6.8,1.6-14.2-0.5-20.2
				c-3.6-10.2-1.3-20-2.6-30.2C134.6,290.7,135.8,290.4,138,290z"/>
			<path fill="#77BC1F" d="M128.7,782.4c13.6,0,27.6-0.2,41.6,0.1c4.2,0.1,8.3,1.5,12.4,2.6c4.3,1.2,7.9-2.9,12.9-0.4
				c3.6,1.8,8.9,0.4,13.4,0.4c5,0,10,0.3,14.9-0.1c4.6-0.3,9.8,2,13.7-2.5c3.9,4.6,9.9,3.7,13.7,2.2c9.6-3.8,19.4-1,28.8-2.6
				c5.4-0.9,9.8,3.3,15.6,0.6c4.5-2.1,9.4,4.2,15,2.5c0.6-0.2,1.9,1.6,2.8,2.5c1-0.9,2-1.8,3.3-3c8.3,5.9,18,1.7,27,3.5
				c1.2,1.3,2.6,2.5,3.6,4c0.4,0.6,0,1.7-0.1,2.7c-4.7,2-9.2,1.7-13.6-1.9c-0.9,0.7-1.9,1.9-3,2c-4.4,0.5-8.8,1.1-13.2,0.8
				c-3.8-0.2-8.2,2.1-11.4-1.8c-3.8,2.2-8.5,3.4-11.8,1.3c-3-2-5.7-2-8.7-2c-17.6-0.1-35.3-0.4-52.9,0.1c-8.2,0.3-16.2,2.7-24.7,2.8
				c-8.2,0.1-17-3.3-24.8,2.2c-3.5-3.8-8.1-2.1-12.4-2.5c-5.8-0.5-11.3,0.2-16.2,3.9c-0.9,8.3,2.2,17.8-5.6,24.7c0,2.7,0,5.4,0,8.9
				c7.6,0.5,14.9,7.7,25.1-2.7c-1.9,7.8-1.9,12.7-4.2,16c-8.6,12.1-10.5,26.6-14.6,40.1c-3.6,11.9-2.7,25.2-3.5,37.9
				c-0.1,0.9,1.6,2,2.5,3c-3.8,3.8-4,7.5,1.2,11.8c1.5,0.7,3,0.9,4.5,0.8l0.1,2c-1.8,0.1-3.9,0.4-5.5,0.4c-5,0-10,0-15,0
				c-3.9-7-14.5-4.3-17.6-13c-0.9-4-2.3-8.6-2.7-13.2c-0.4-5.3-1.8-11.8,0.6-15.9c2.8-4.9,0.7-9.6,2.6-14.5c1.9,0,4,0,5.9,0
				c0.8-1.2,1.6-1.9,1.6-2.6c-0.8-10.9-2.3-21.9-2.5-32.8c-0.4-18.5-0.1-37.1-0.2-55.6c0-2.9-0.9-5.7-1.5-9.7
				C125.9,785.3,127.1,784.1,128.7,782.4z"/>
			<path fill="#FDDF50" d="M124.7,448.6c0,15.6-1.9,31.6,0.5,46.9c2.8,17.8,1.8,35.5,2.1,53.2c0.4,17.6,0.1,35.2,0.1,53.2
				c-1.2,1-2.5,2.2-3.7,3.2c-6-2.5-12-5.1-18.1-7.6c0-25.2,0-49.6,0-73.9c0-3-0.8-6.1,2.3-8.7c0.9-0.8,1.1-4.1,0.3-5
				c-3.6-3.8-1.5-8.6-2.8-12.5c-1.4-4.2-2.5-8.1-2.7-12.5c-0.1-3.1-2.4-6.2-3.5-9.3c-2.3-6-4.6-12.1-0.6-19.4c2.3,0,4.1,0,5.9,0
				C108.6,449.2,111.4,448.1,124.7,448.6z"/>
			<path fill="#B7B7B7" d="M114,757c3.4,2.9,7.4,6.4,13.1,11.2c-7.4,0-12.6,0-17.8,0c-1.1-1-2.5-2.2-4.6-4.1
				c4.3-3.2,4.4-8.9,6.4-13.6l2.9,0.4C114,752.6,114,754.3,114,757z"/>
			<path fill="#B7B7B7" d="M117.9,743.7c0.7,1.7,1.1,2.8,1.8,4.6c-2,0.9-3.8,1.7-5.7,2.6l-2.9-0.4
				C112.2,747.6,114.1,745.1,117.9,743.7z"/>
			<path fill="#00953A" d="M102.5,616.6c7,1.5,11.5,2.5,16.5,3.7c0.1,1.4,0.2,3.1,0.3,4.8c-4.3,3.5-8.6,7-12.8,10.5
				c-1.7,0-3.5,0-5.1,0C96.8,628.5,105,623.4,102.5,616.6z"/>
			<path fill="#FDDF50" d="M113,644.5c3.5,14.4-0.4,28.3-5.3,41.5c-1.4,3.9-1,7.6-2.8,12.2c-1,0-1.5,0-1.9,0c-1.4,0-2.7,0-4.8,0
				c-6-16-4.1-32.1-1.4-47.1C103.2,648.4,108.1,646.5,113,644.5z"/>
			<path fill="#00953A" d="M93.6,423.2c1.7,0.8,3.5,1.7,5.6,2.7c0.6-0.5,1.5-1.4,2.5-2.3c1.2,1.2,2.5,2.5,3.7,3.9
				c0,3.8,0,7.7,0,10.8c-5.5,3.3-10.4,6.2-15.6,9.4c0-5.9,0-11.6,0-17.2C90.9,428.4,92,426.2,93.6,423.2z"/>
			<path fill="#00953A" d="M90.6,717.2c5.1,7,6.1,14.2,0.5,21.1c-3.4,4.2-0.8,8.6-2,13.1c-1.6,1.6-2.6,2.6-3.6,3.6
				c-0.3-0.1-0.9-0.3-0.9-0.4c0-10.2,0-20.5,0-31C86.3,721.7,88.5,719.4,90.6,717.2z"/>
			<path d="M522.5,56.6c8.6,0.9,8.6,0.9,10,10c-2.7,2.2-5.8,4.8-8.3,6.8c0,6.5,1.9,13.1-0.4,17c-3.6,5.8-1.1,11.3-2.2,16.7
				c-0.9,4.8-1.8,9.6-2.8,15c2.6-0.4,3.8-0.5,5-0.7c0.6-11,5.6-26.5,11.4-36.2c-1.1-1.3-2.1-2.5-3-3.6c2.6-5.1,4.8-9.6,7.1-14.1
				c0.3,0.3,0.5,0.6,0.8,0.9c2.3-2.2,4.5-4.3,7-6.6c-3.7-2.5-6.5-4.3-7.9-5.3c-1.5-5.5-2.5-9.5-3.5-13.3c-5.3,0-9.2,0-12.9,0
				c-1.2,2.5-2.3,4.7-3.1,6.5C520.4,51.9,521.2,53.8,522.5,56.6z M465.2,938.7c4.2,4.6,7.4,8.2,11.1,12.3c1.6-1.2,2.6-2.7,3.6-2.6
				c7.1,0.4,9.5-3.3,9.1-9.8c0-0.2,1.2-0.4,1.8-0.7c0.8,1.9,1.5,3.6,2.1,5c9.2-1.1,4.3-11.7,11.1-13.4c0.9,0.8,1.9,1.5,2.8,2.2
				c4.2-4.8,7.9-9.5,5.8-16.3c-10.1,1.1-20.1-2.3-28.8,3.9C482.6,929.6,478.3,937.2,465.2,938.7z M419.6,638.1
				c-6.2,12.7-3.4,25.4-4.2,37.8c2,0.3,2.9,0.4,3.9,0.5c2.2-3.9,4.3-8,6.8-11.8c2.3-3.6,5.6-6.7,7.5-10.5c2.1-4.2,4-8,9.5-10.1
				c4,9.2,7.8,18.1,11.9,27.7c2.4-3.7,4.5-6.9,6.9-10.5c-1.1-8.3,3.6-18.9-8.3-24.3c0-2.7,0-5.4,0-8.7
				C439.3,624.9,429.6,632.8,419.6,638.1z M414,831c2.4-1.2,4.6-2.4,6.6-3.4c0-4.1,0-8,0-12.2c-4.3,0-8.3,0-13.3,0
				c-1.1,2.8-2.2,5.9-3.5,9.3C407.8,827.2,411.1,829.2,414,831z M405.8,777c3.2,0,6.8-0.3,10.2,0.1c3.2,0.3,7.7,3.1,9.2,1.8
				c3.9-3.2,5.7,2,9.1,1c3.8-1.1,9-1.8,11.9,0.1c6.9,4.5,13.6,1.3,20.7,2.6c0-4,0-7,0-11.1c-2.3,0-3.8-0.4-4.9,0.1
				c-10.1,4.1-20.1,4-30.2,0c-3.1-1.2-6.4-2.2-9.7-2.7c-3.5-0.5-7.2-0.1-11.5-0.1C412,773.5,401.4,769.2,405.8,777z M364.1,733.9
				c0,2.6,0,4.7,0,8.7c4.1-1.2,6.8-2,9.8-2.9c1.2,0.6,3,1.5,5.9,2.9c0.1-5.5,1.3-9.3,4.8-12.6c1.3-1.3,0.8-4.6,1-7.1
				c-4.1,0-7.1,0-11.1,0c-1.3,3.5-2.5,7-4,11C368.6,733.9,366.5,733.9,364.1,733.9z M352.5,696.5c3.6,3.6,5.5,8.6,10,9.5
				c11.6,2.4,26.6-2.3,41,2.8c1.5,0.5,3.7-0.9,5.8-2c0.4-0.2,0.8-0.4,1.2-0.5c0.6,0.6,1.3,1.1,1.9,1.4c4.5,2.6,9.8,0.7,14.6,1.3
				c5.9,0.8,11.7,1.7,17.8,2.5c0-3.8,0-7.2,0-10.5c-1.5-0.1-2.5,0.1-3.2-0.3c-1.1-0.7-2-1.7-3-2.6c-0.9,0.8-1.9,1.7-2.8,2.6
				c-2.4-3.2-4.9-3.9-7.6-0.4c-12-4.8-24.5-0.8-36.7-2.4c-5.3-0.7-10.5-2.8-16.3-4.4c0,0-1,1-1.5,1.4c-5.9-1-11.3-2-16.8-3
				c0.4,0.8,0.9,1.6,1.3,2.5C356,695.3,353.8,696.1,352.5,696.5z M331.7,729.9c3.2,3.2,6.1,6.1,8.7,8.7c4.2,0,8.1,0,12.3,0
				c0-5.2,0-10,0-15.2c-5.1-1-9.6-5.8-14.3-3.2C335.6,724.2,333.6,727.1,331.7,729.9z M326.3,763.8c6.1,1,11.9,1.9,17.7,2.9
				c-1.5-8.2-9.5-5.3-12.6-11.6c4.8,0,9,0,15.1,0c-2.6-3.8-4.1-6.1-5-7.3c-6.1,0-10.9,0-15.1,0C326.3,753.3,326.3,758.2,326.3,763.8
				z M270.3,809.8c-0.6,4.1-1.1,7.2-1.8,11.4c5.5-1.4,9.5-2.9,13.7-3.3c4.7-0.4,9.8-1.3,13.7,3.1c4.9-3.1,9.5-6.1,14.7-9.4
				c2.5,1.6,4.9,3.2,7.6,4.9c0,3.1,0,5.9,0,6.1c4.3,6.3,9.4,7.6,12.9,5.8c6-3.2,11.9-2.1,16.8-2.3c3.8,2,6.7,3.5,9.5,4.9
				c16.7-5.8,16.7-5.8,26.9-2.3c2.3-4.5,4.5-9,7.6-14.9c-3.8-1.5-6.8-3.4-10-3.9c-4-0.6-8.2,0.2-12.2-0.3c-3.8-0.4-7.4-2.4-11.1-2.5
				c-18.2-0.7-36.4,0.7-54.6-2.5c-10.1-1.8-20.8-0.3-31.1-0.3c-1.3,1.3-2.6,2.6-4,4C269.5,808.9,270.1,809.6,270.3,809.8z
				 M894.4,759.7c5.3,6.7,12.3,10.3,21.4,9.2c3.1-0.3,7.4-1.3,9.2,0.3c5,4.2,9.9,1.5,14.6,2.2c0.4-5.9,0.4-10.8,1.3-15.5
				c1-5.3,3.7-10.4,4.4-15.7c0.8-5.6,0.2-11.5,0.2-16c-16.3-7.6-30.2-4.7-43.3,5.7C898.6,739,891.2,747.8,894.4,759.7z M808.9,758.3
				c2.3-2.8,4.9-5.9,6.5-7.9c10.7-0.9,15.9-12.4,26.2-8.4c1.6-2.9,2.7-5,4.3-8c-6.1,0-11,0-16.2,0c-1.5,1.4-3.3,4.4-5.5,4.8
				c-12.4,1.9-20.5,11.4-31,16.6c-4.1,2-4.2,6.3-6,11.4C795.9,764.8,800,756.3,808.9,758.3z M605.8,763.4c6.7-2.7,12.4-5,20.2-8.2
				c2.1,0,7.8,1.7,10.8-0.4c4.9-3.4,10.2-3.4,13.9-1.9c9.1,3.5,18.3,1.5,26.4,2.4c2.6,4.6,4.2,10,5.8,10c6.5-0.2,9.7,5.3,14.8,7.3
				c5.7,2.3,10.6,2.6,15-0.4c6.9,1.8,13,4,16.4,10.2c7.9,0,15.9,1.3,23.2-0.4c6.9-1.5,13-6.9,19.7-5.1c2.4-1.2,4-1.8,5.4-2.7
				c1.8-1.2,3.5-2.6,5.3-3.9c-1.4-1.4-2.7-2.7-3.8-3.8c-22.5,12.8-44.2,9.6-64.9-3.7c-1.5,1.4-2.5,2.3-2.9,2.7
				c-9.5-6-18.8-12-28.8-18.4c-14,0-28.9,0.2-43.8-0.1c-6.6-0.1-13.4-0.3-19.1,3c-4.6,2.7-9.2,2.3-13.9,2.6c-0.8,0-1.5,0.8-3.1,1.6
				C603.4,757.2,604.6,760.3,605.8,763.4z M584,749c3.4-7.2,3.8-15.1,1-21.3c-1.2-2.7-3.3-5.2-3.6-8c-1.2-11.4-2.1-22.8-2.8-34.2
				c-0.9-13.3-4.8-25.1-15.5-33.9c-3.9,0.3-8.3-0.5-10.8,1.2c-3.5,2.5-6.9,1.1-10.2,1.8c-3.3,0.7-6.5,2.4-9.8,2.6
				c-7.2,0.4-14.5-0.2-21.7,0.2c-6.9,0.4-13.8,1.7-20.6,2.6c-7.8,1.1-15.4,2.6-20.2,10c0.1,2,0.3,4.1,0.4,6.3
				c10.9,0,20.8,0.1,30.7,0c6.5-0.1,11.6,2.4,15.7,7.8c-0.8,2.3-1.7,4.2-2.3,6.2c-1.4,5.7-5.3,10.3-6.9,16.2c-1.7,6-2.2,12.5-5,18.3
				c-3,6.1-4.5,12.7-6.7,19c-5.3,15.4-7.9,31.9-17.7,45.7c-1,1.4-0.1,4.1-0.1,5.4c-3.5,1.7-5.8,2.8-6.4,3.1
				c-5.8-0.8-9.9-1.5-14.1-1.9c-4.3-0.5-8.3,6.7-13,0.4c-2.9,1.5-5.1,2.7-7.9,4.1c1.2,3.7,2.3,7.3,3.6,11.4
				c-1.8,3.4-3.8,7.2-6.1,11.6c0,5.5,0,11.8,0,17.7c-5.3,1.3-10.5,4-15.1,3.3c-5.4-0.8-10.6-3.5-17.3-1.5c-0.8,4.1-1,8.9-2.8,13.1
				c-1.9,4.6-5.2,8.7-8.1,13.3c1,1.7,2,3.5,3.6,6.2c-3,2.2-6,4.3-8.3,6.1c-1.8,4.5,0.4,8.7-2.5,13.2c-2.6,4-3.3,9.8-3.2,14.8
				c0.1,4.6,2.2,9.2,3.3,13.4c12.8-5.8,25.3-8.1,38.5-7.5c4.7-5.4,11.5-5.2,17.6-6.6c12.5-3,24.6-8.2,37.9-7.1
				c3.4,0.3,6.5-0.9,9.9-2.2c6.8-2.5,14.5-3,21.8-3c9.7-0.1,18.6-2.3,27.7-5.4c10.4-3.5,21.4-4.7,32-8c5.5-1.7,10.4-3.2,14.9-6.9
				c4.9-4.1,10.4-7.5,16.2-11.6c0.3-0.6,0.9-2.2,1.6-3.7c2.2-4.5,6-8.9,6.3-13.6c0.8-11.7,1.5-23.7-3.4-35.1
				c-2-4.7-4.4-9.1-6.9-13.5c-2.4-4.3-3.3-9.5-4.7-14.3c-1.3-4.5-3.5-9-3.4-13.4C589.9,763.1,586.5,756.2,584,749z M575.8,603.6
				c4.5,5.3,8.9,10.5,13.5,15.9c1.5-0.8,3.2-1.6,5.5-2.8c0,3.8,0,6.8,0,12.3c2.7-2.7,4-4,5.2-5.2c0-4.9,0-9.8,0-13.8
				c-6.1-8.7-14.1-11.8-23.9-12.5C576,600.2,575.9,601.9,575.8,603.6z M544.2,445.6c16.6-14,34.2-14.7,54.3-5.9
				c-3.2-6.7-6-12.7-8.7-18.6c-0.4-0.8-0.8-1.7-1.2-2.5h0c-5.6,0.3-7.8-9.4-14.8-5.1c-0.5,1.6-1.1,3.2-1.6,4.6c-3.9,0-7.5,0-11.4,0
				C553,425.7,549.3,435.8,544.2,445.6z M575.9,633.8c-3.1-10.6-4.8-22-16-28.1c-5.6,4.1-13.6,1.6-18.9,6.4
				c-5.4,4.9-13.5-1.8-18.5,4.5c-7.2,0-14.4,0-20.4,0c-12.2,7.6-25.7,5.8-39.3,9.7c8.9,7.5,6.8,20.5,16.6,25.2
				c4.5-0.9,8.2-1.8,12-2.2c3.1-0.3,7.2,1.2,9.3-0.3c6.3-4.6,13.3-0.5,19.3-2.7c6.4-2.4,12.8-2.9,19.3-2.3c7.2,0.7,13.5-2.1,20.1-4
				c3.5-1,8.3-4.7,10-3.5C574,639.9,573.9,635.1,575.9,633.8z M548.9,464.4c2,6.3,4.4,11.3,5.1,16.6c0.8,6.2-0.2,12.7,0.3,19
				c0.5,6.4,2.1,12.8,2.5,19.2c0.5,7.7-0.4,15.4,0.3,23.1c0.7,7.6,2,15.3,4.1,22.7c1.9,7,5,13.7,3.8,21.5c9.3,0,17.8,0,26.3,0
				c1.2-1.2,2.5-2.5,3-3c1.2-22.6,2.3-44.3,3.7-66.1c0.1-1.4,2-2.6,2.9-3.7c-1.4-2.5-2.4-4.3-3.3-6c1.1-1.8,2-3.2,3-4.8
				c-3-5.4-3.6-10.7-1.5-17.1c1.5-4.7-0.5-10.6-1.3-15.9c-0.9-5.9-2.3-11.8-3.5-17.9c-2.7-1.8-5.8-4-9.4-6.5c-3,0-6.6,0-11,0
				C565.5,451.6,556.9,458.2,548.9,464.4z M244.2,964.7c5.9,1.8,11.8,3.7,19.3,6c2.4-2.4,5-5.1,7.7-7.7c0.3,0.2,1.1,0.8,2.6,1.9
				c3.3-6.2,6.2-11.7,9.6-18.3c-9-1.8-16.7-6.1-24.8-3c-1.6,5.5-3,10.4-4.2,14.6c-3.5,1.2-6.6,2.3-9.8,3.4
				C244.5,962.6,244.3,963.6,244.2,964.7z M229,51.4c2.8,2.1,4.7,5.5,7.2,8.6c2.6-2.2,5.1-5.8,7.3-5.7c8.5,0.4,8.1-6.3,12.3-11.6
				c-4.2,0-6.3,0-8.7,0c2.1-4.1,3.9-7.7,5.7-11.3c-4.6-4.4-8.8-8.4-14.5-13.8c-4.2,8.2-14.5-0.9-18.2,8c5,7.1,1.9,14.4-0.6,22
				C222.9,48.8,226.5,49.4,229,51.4z M219.4,131.3c-4.6,7.9-1.1,15.4-2.2,22.8c4.2,0,7.2,0,11.4,0c-0.9-6-1.7-11.4-2.5-16.3
				c4.6-23,6.7-46.1,8.5-70.2c-0.9,0-3.1,0.4-5.1-0.1c-2.1-0.5-4.1-1.8-8.9-4.1c6.7,12.2,3.9,22.4,4.4,32.5c0.1,1.5-0.7,3.4-1.7,4.7
				c-4.1,5.3-3.8,11.4-3.7,17.5C219.9,122.5,221.4,127.9,219.4,131.3z M182.6,541.1c-0.5,2.6-1.8,6-0.7,7.7c4,6.2,2.3,12.9,2.4,19.4
				c0.3,14.5-0.1,29,0.2,43.4c0.1,3.8,1.3,7.5,1.9,10.4c-0.7,3.3-2.7,6.8-1.8,8.9c3.7,8.4,1.8,17.3,2.6,25.3
				c1.5,1.5,2.5,2.5,2.7,2.7c6.7,1.4,12.7,4.1,18.4,3.7c20.6-1.4,40.8,3.8,61.3,3c7.2-0.3,14.5,0.2,21.7-0.1
				c8.4-0.4,16,2.9,23.9,4.4c7.5,1.5,14.8,5.4,22.8,3.5c2.1-0.5,13.6-0.1,16,0.1c2.1,0.1,4.3-0.3,6.4-0.8c3.3-0.7,6.6-1.6,8.6-2.1
				c5.1,3.4,9,6.1,12.1,8.2c7.2,0,13.5,0,19.5,0c1.2-1.2,2.2-2.2,3.6-3.6c0-10.7,0-21.9,0-32.6c2.1-2.1,4.9-3.6,5.1-5.3
				c0.8-10.5,8.2-13.1,16.5-15.4c3.6-1,6.8-3.2,11.2-5.3c6.8,1.1,14.7-0.5,21.5-4.1c4.9-2.6,8-7.9,8.5-12.4
				c-3.6-15.9-6.5-30.3-5.3-44.5c-2.3-2.3-3.9-3.9-5.5-5.5c0-1.8,0-3.6,0-4.8c-3.6-4.4-6.9-8.4-10.1-12.3c-4.2-1-8.7-2.1-11.8-2.8
				c-3.4,0.9-5.6,1.5-8.5,2.2c0-3.5,0-5.6,0-8.2c-3.1,0-6.6-1.1-8.3,0.2c-4.4,3.6-9.3,2.1-14,2.5c-9.1,0.8-18.3,1.4-27.4,2.9
				c-4,0.6-7.6,3.2-11.5,5c-4.7-2.2-14.5-3.7-18.9-2.1c-9.9,3.7-20,5.3-30.5,5.1c-6.3-0.1-12.5,0-18.2,0c-2.2,2.2-3.8,3.8-5.9,5.9
				c-6.9-1-14.2-2-21.4-3.2s-14.5-2.4-22.7-3.8c-0.8-0.8-2.4-2.4-4.3-4.3c-14.1,0.7-26-11.4-40.6-7c-6,1.9-12,3.8-17.2,5.5
				C184.3,534.5,183.3,537.7,182.6,541.1z M171.3,823c9,1.1,13.9-4.3,18.8-9.7c-0.3-2.4-0.6-4.5-0.9-6.9c-3.7,1.3-6.4,2.6-9.2,3.1
				c-2.9,0.5-6,0.1-8.7,0.1C171.3,814.8,171.3,818.7,171.3,823z M262.8,820.7c-1,0.6-2.8,1.6-4.6,2.5c-0.7-0.3-1.4-0.6-2.1-0.8
				c-1.8-0.7-3.6-1.4-5.7-2.3c2.4-3.4,5.4-6.1,8.6-8.8c0.6-0.5,1.1-0.9,1.7-1.4c-0.1-1.4-0.2-3.2-0.3-6.1c-9.8,2.8-18.7-3.2-29,0
				c-9.7,3-20.3,2.8-33.3,4.3c4.2,2.5,6.4,3.9,8,4.9c-4.6,8.9-10.5,16.3-12.2,24.6c-2,9.4-11.2,15.6-10.1,25.8
				c-7.2,14.4-9.2,30.1-10.5,44.8c-2.6,5.5-7.1,9.6-4.2,15.2c4.6-0.9,8.3-1.7,12.1-2.4c4.2-0.8,8.6,1.3,12.8-2.2
				c2.7-2.3,8.1,1.4,10.9-3.1c3,4.6,8.3,1.1,11.4,3c3.8,3.8,6.9,6.9,10.5,10.5c7.9-0.6,16.3,1.7,24-2.7c10.8,6.4,23.1,6.4,34.8,7.7
				c11.7,1.4,23.4,4.8,35.5,3.2c1.6-0.2,3.5,2,4,2.3c3.8-1.1,7-3.1,8.5-2.3c5.8,3.3,12,2.2,18,2.6c2.2,0.1,4.3,1.2,7.5,2.2
				c1.7-6.8,4.7-13.4,4.5-19.9c-0.2-7.3,3.8-13.5,3.1-20.6c5.9-5.9-0.6-15,5.4-20.8c-0.4-7.1,3.8-13.1,5-19.6
				c1.2-6.7,1-13.8,3.6-20.2c-1.7-1.6-3-2.8-4.1-3.9c-12.8,1-25.5,2-37.8,3c-6.6-9.7-19.9-5.4-25.1-14.4c-3.2,0-5.5,0-8.5,0
				c-1.4,1.7-3,3.8-4.3,5.4c-6.3,0-11.7,0-16.1,0C277.1,827.7,270.3,824.4,262.8,820.7z M101.4,635.5c1.7,0,3.4,0,5.1,0
				c4.2-3.4,8.5-6.9,12.8-10.5c-0.1-1.7-0.2-3.4-0.3-4.8c-5-1.1-9.5-2.1-16.5-3.7C105,623.4,96.8,628.5,101.4,635.5z M99.1,425.9
				c-2.1-1-3.9-1.8-5.6-2.7c-1.5,2.9-2.7,5.1-3.8,7.3c0,5.6,0,11.3,0,17.2c5.3-3.2,10.1-6.1,15.6-9.4c0-3.1,0-7,0-10.8
				c-1.3-1.3-2.5-2.6-3.7-3.9C100.6,424.5,99.7,425.4,99.1,425.9z M119.7,748.3c-0.7-1.8-1.2-2.9-1.8-4.6c-3.8,1.4-5.6,3.9-6.8,6.7
				c-2,4.7-2.1,10.4-6.4,13.6c2.1,1.9,3.5,3,4.6,4.1c5.2,0,10.3,0,17.8,0c-5.7-4.8-9.6-8.2-13.1-11.2c0-2.6,0-4.4,0-6
				C115.9,750,117.7,749.2,119.7,748.3z M89.1,751.4c1.2-4.5-1.3-8.9,2-13.1c5.6-6.9,4.6-14.1-0.5-21.1c-2.1,2.2-4.3,4.5-6,6.3
				c0,10.6,0,20.8,0,31c0,0.1,0.6,0.3,0.9,0.4C86.5,754,87.4,753.1,89.1,751.4z M151.2,679.3c5.6,0,12.3,0,18.5,0
				c1.4,1.4,2.4,2.4,3.7,3.7c0,6.4,0,13,0,18.7c-2.7,5.3-5.1,9.8-7.8,15.1c-1,5.8,1.4,12.9-2.6,19.6c-4.1,7-5.3,15.2-6.1,25.4
				c-0.8,0.4-3,1.6-5.2,2.7c1.9,1.9,2.9,2.9,4.1,4.1c15.4,0,31.2,0,45.9,0c2-1.5,3.4-2.6,4.9-3.8c-2.7-1.4-4.9-2.5-8-4.1
				c-10.6,0.9-21.2-1.6-29.8-8.7c0-4.8,0-8.7,0-13.1c8.3-3.2,16.4-5.8,25.2-5.4c3.8,4.9,9.2,2.2,13.8,2.6c4.5,0.4,9,0.1,13.5,0.1
				c9,9.3,17.9,5.1,26.6-0.8c3.8,1.8,7.1,3.4,9.7,4.6c-1.1,5.3-1.2,10.2-3.1,14.3c-1.9,4.1-5.6,7.4-8.1,10.6c-3,1.6-6,1.8-9,1.5
				c-6.7-0.7-13.5-4.3-20.5-2.1c0.6,2,1,3.2,1.2,3.9c6.4,0.6,12.8,1.1,19,1.7c6.1,0.5,12.2,1.1,18.3,1.7c1.1,0.1,2.2,1.6,3.3,1.7
				c2.4,0.2,5.6,0.8,7.2-0.4c3-2.2,4.7-1.6,6.7,0.8c3-4.9,5.9,2.4,9.6-0.1c3.2-2.2,7.6-2.4,12.8-3.9c-7.6-8.9-20.8-6.6-25.8-16.2
				c-1-4.5,0.5-8.7-2.1-13.2c-2-3.5-1.5-8.7,1.3-13.7c3.4-6.1,5.2-13.5,5.8-20.5c0.5-6.6,2.9-11.6,6.1-15.3c8.8-1.3,16.5-3,24.2-3.5
				c8.5-0.6,17.2-0.2,25.7-0.3c0.3,0,0.6-0.6,1.5-1.4c-1.5-1.5-2.9-2.9-4.3-4.3c-8.7,0-17,1.3-24.8-0.3c-9.7-2.1-19.2-4.9-29.2-4.7
				c-9.9,0.2-19.9,0-29.9,0.1c-2.3,0-4.7,0.5-7,0.7c2.5,2.9,5.3,3.8,8,4.7c2.8,0.9,5.6,1.8,8.4,2.6c5.3-4.4,11.7-2,18.2-2.8
				c1.4,2.8,2.6,5.5,3.1,6.5c-5.2,10.7-9.5,19.8-14.3,29.6c-5.8-1-11.2-1.9-18.2-3c-2.1,4.2-4.6,9.5-7.7,15.8
				c-1.6,0.7-4.6,2-7.2,3.1c-4.3-1.4-7.9-2.6-10.8-3.5c-2.6-3.5-4.8-6.5-7.8-10.7c0-4.6,0-10.3,0-16c-6.1,0-11.6,0-17.7,0
				c0-4.2,0-8.5,0-10.3c3.5-7.2,6.1-12.5,8.4-17.3c-2.3-2.3-3.6-3.6-4.8-4.8c-6.4-1.3-13.4,2.1-18.4-2c-8.6,3.6-17.3,0.7-25.5,2
				c-1.2,1.2-2.5,2.5-4,4C147.7,676.3,149,677.5,151.2,679.3z M108.2,509.8c0.8,0.9,0.6,4.2-0.3,5c-3,2.5-2.3,5.6-2.3,8.7
				c0,24.3,0,48.7,0,73.9c6,2.5,12.1,5.1,18.1,7.6c1.1-1,2.5-2.2,3.7-3.2c0-17.9,0.3-35.5-0.1-53.2c-0.4-17.7,0.6-35.3-2.1-53.2
				c-2.4-15.3-0.5-31.3-0.5-46.9c-13.2-0.5-16.1,0.6-20.3,7.6c-1.8,0-3.5,0-5.9,0c-3.9,7.3-1.6,13.3,0.6,19.4
				c1.2,3.1,3.4,6.1,3.5,9.3c0.2,4.4,1.3,8.3,2.7,12.5C106.8,501.3,104.6,506.1,108.2,509.8z M139.7,942.8c5.1,0,10.1,0,15,0
				c1.6,0,3.7-0.3,5.5-0.4c1.7-0.1,3.1,0,3.6,0.8c3.7,4.8,9.3,0.5,13.5,4.3c4.6,4.2,9.7-1.6,14.7-1.9c13.6-0.9,27.3-1.8,40.9-2.7
				c1.9-0.1,3.8-0.5,5.7-0.7c-9.4-3.5-19.5,0.6-28.2-4.8c-1.1,1.1-2.1,2-3.6,3.3c-1.6-0.9-3.4-1.9-3.5-2
				c-12.1,3.8-21.8-2.3-31.7-3.1c-3.9,1.9-7.6,4.5-11.5,4.9c-1.5,0.1-3-0.1-4.5-0.8c-5.2-4.3-5-8-1.2-11.8c-0.9-1-2.5-2.1-2.5-3
				c0.8-12.7-0.1-26,3.5-37.9c4.1-13.5,6-28,14.6-40.1c2.3-3.3,2.3-8.3,4.2-16c-10.3,10.4-17.5,3.1-25.1,2.7c0-3.4,0-6.2,0-8.9
				c7.8-6.9,4.7-16.3,5.6-24.7c4.9-3.7,10.5-4.4,16.2-3.9c4.2,0.4,8.9-1.3,12.4,2.5c7.8-5.6,16.6-2.1,24.8-2.2
				c8.4-0.1,16.5-2.6,24.7-2.8c17.6-0.6,35.3-0.2,52.9-0.1c3,0,5.7,0,8.7,2c3.3,2.1,8,0.9,11.8-1.3c3.2,3.9,7.6,1.6,11.4,1.8
				c4.4,0.3,8.8-0.3,13.2-0.8c1.1-0.1,2.1-1.4,3-2c4.4,3.6,8.9,3.9,13.6,1.9c0-1,0.5-2.2,0.1-2.7c-1-1.5-2.4-2.7-3.6-4
				c-9-1.8-18.7,2.4-27-3.5c-1.3,1.2-2.3,2.1-3.3,3c-0.9-0.8-2.2-2.6-2.8-2.5c-5.6,1.7-10.5-4.6-15-2.5c-5.8,2.7-10.2-1.5-15.6-0.6
				c-9.5,1.6-19.2-1.1-28.8,2.6c-3.8,1.5-9.8,2.4-13.7-2.2c-3.9,4.5-9.1,2.2-13.7,2.5c-5,0.3-10,0.1-14.9,0.1
				c-4.5,0-9.8,1.5-13.4-0.4c-4.9-2.5-8.6,1.6-12.9,0.4c-4.1-1.2-8.3-2.6-12.4-2.6c-14-0.3-28-0.1-41.6-0.1c-1.6,1.6-2.8,2.9-2.9,3
				c0.6,3.9,1.5,6.8,1.5,9.7c0.1,18.5-0.3,37.1,0.2,55.6c0.3,11,1.7,21.9,2.5,32.8c0,0.7-0.8,1.4-1.6,2.6c-1.9,0-4,0-5.9,0
				c-1.9,4.9,0.2,9.6-2.6,14.5c-2.3,4.1-1,10.6-0.6,15.9c0.4,4.6,1.9,9.2,2.7,13.2C125.2,938.5,135.8,935.9,139.7,942.8z M107.7,686
				c4.9-13.3,8.8-27.2,5.3-41.5c-4.9,2-9.8,4-16.2,6.6c-2.6,15.1-4.6,31.2,1.4,47.1c2.1,0,3.4,0,4.8,0c0.4,0,0.9,0,1.9,0
				C106.7,693.6,106.2,689.9,107.7,686z M144,579.1c-1.3,8.9,1.9,18.8-0.9,26.9c-3,8.7,0.8,18.5-7.7,27.1c-0.5,0.3-3,2-4.8,3.1
				c0,7.5,0,14.2,0,22.6c3.8-2.6,6.5-4.4,9.9-6.7c4.5,0,9.9,0,15.3,0c1.9,1.8,3.8,3.7,5.5,5.3c3.9,0,7.5,0,10.9,0
				c1.5-1.4,2.8-2.7,4.1-3.9c-0.7-0.7-1.9-1.3-1.9-2c-0.4-9.1-4.6-17.7-3.7-27.1c0.4-4,1.2-8.8-0.5-11.9c-3.8-7-3.5-14.8-1.6-20.8
				c4-12.5,1-24.8,2.1-37.1c0.2-2.7-3.2-6.4-2.3-8.2c4.1-7.7,1.5-15.7,2.8-24.7c2-1.3,4-2.5,6-3.9c2.1-1.3,4.2-2.6,6.3-4
				c2.1-1.3,4.3-2.7,6.4-4.1c2.2-1.4,4.3-2.7,6.5-4.1c3.4-0.7,6.6-0.6,9.7,0c0.1,0,0.2,0,0.3,0.1c1,0.2,2,0.4,3,0.7
				c1.7,0.5,3.4,1.1,5,1.7c0.6,0.2,1.1,0.4,1.7,0.6c0.5,0.2,1,0.4,1.5,0.6c0.8,0.3,1.6,0.6,2.4,0.9c1.4,0.6,2.8,1.1,4.3,1.6
				c0.7,0.2,1.3,0.4,2,0.6c0.7,0.2,1.4,0.4,2,0.5c1.7,0.4,3.5,0.7,5.2,0.8c6.3,0.4,12.4,4.9,18.8,7.6c4.6,1.5,9.7-0.9,15.2,2.3
				c3.7,2.1,10.1,1.8,15.4-0.9c2.7-1.4,6.7-0.9,9.9-0.1c7,1.7,42.7,2.2,49.1,0.5c6.6-1.7,13.2-3.8,20-4.2c9.6-0.5,18.7-1.4,27.8-5.2
				c4.5-1.9,10.4-1.4,15,2.3c13.3-7.1,26.5,0,37.7,0.3c9.6,3.2,16.1,7.4,20,15.2c4,7.9,10.3,15,12.4,23.3c1.8,7.4,5.6,13.2,8.7,21
				c0,3.4,0,7.1,0,11s0,8,0,12.1c0.2,0.2,0.3,0.3,0.5,0.5c0.2,0.2,0.3,0.3,0.5,0.5c1,1,2.2,2.2,3.9,3.9c9.7-2,20.2-4.1,30.6-6.2
				c10.8-2.3,21.2-6.5,32.4-5.8c0.5-10.2-3-18.7-4.5-27.6c-1.2-7.2-4.8-14-3.7-21.7c0.3-2.1,0.3-4.6-0.5-6.5
				c-4.3-9.8-5.6-20.1-4.8-30.6c0.8-10.7-1.5-20.6-5.7-28.1c-6.3-3.4-11.1-5.9-15.8-8.4c-1.8-5.6,0.7-10.6,3.5-14.6
				c3.2-4.7,6.3-8.8,7.4-14.7c1-5.1,4.8-9.7,8.2-16.1c0-2.2,0-6.2,0-9.5c2.3-2.5,4-4.4,4.8-5.2c-1.1-4.5-2.2-7.3-2.4-10.1
				c-0.5-9.2,4.4-18,2.7-27.4c-0.1-0.3,0.4-0.8,0.6-1.1c4.8-9.6,2.6-18.4-3.7-27.5c2-1.4,4.2-3,5.6-4c1.2-10.7,0.5-20.2,2.4-30
				c2.4-12.7,1.3-26.2,0.3-39.3c-0.4-5.5-4.3-10.7-6.8-16.5c0.3-0.9,2.1-3.4,1.5-4.8c-5.3-12.1-2-26.6-10.6-37.8
				c-0.7-0.9-0.3-2.7-0.1-4c0.8-5.1-1.9-9.1-3.9-13.4c-2.1-0.2-4.3-0.4-7.2-0.7c-1.2-5.9-2.3-11.8-3.7-18.8c-2.5-1.8-6-4.4-9.7-7.1
				c0-3.1,0-6.7,0-10.4c-8.2-6.4-12-16.6-21.7-22.4c-8.9-5.4-18.9-5.3-27.5-9.3c-11-5.2-19.5,1.3-29.1,2.3c-0.5-1.5-1.1-3.1-1.6-4.5
				c-6.6-1-11.6,3.7-18.3,2.9c-13.2-1.6-26.2,3.3-39.6,2.9c-8-0.2-16.1,4.3-24.7,6.9c-0.2-0.1-1.1-1-1.9-1.7c-7,1.8-14,3.5-21,5.3
				c-3.3,0.8-6.5,2-9.8,2.6c-3.3,0.7-6.5,0.7-10,2.1c-15,5.9-30.4,10.8-44,11.7c-9.3,3.9-16.4,6.7-23.2,9.8
				c-7.2,3.4-14.2,7.2-22.4,11.5c-1.5,3-3.6,7.1-6.4,12.3c-4.1-2.2-8.1-4.4-12.1-6.6c-15.7,5.3-25.5,12.2-30.1,21
				c-15.8,4.1-26.8,12.9-31.9,28.5c-2.9,8.8-5.1,17.5,3.1,25.7c-2.9,11.3,7,21.6,4.8,33.2c-2.2,0.4-3.4,0.7-5.4,1.1
				c1.2,10.1-1,20,2.6,30.2c2.1,6,0,13.5,0.5,20.2c0.5,6.9,2.1,13.7,2.5,20.6c0.5,7.7,0,15.4,0.1,23.1c0,2.6-0.4,5.7,0.8,7.8
				c4.2,7.4,1.5,14.2-0.8,20.3c2.8,4.2,5.3,7.8,7.7,11.3c1.7,4.4-2,9.9,3.6,14.3c-4.1,2.8-7.9,5.4-11.7,8.1
				c-0.9,0.7-1.5,1.7-2.3,2.6c1.8,1.8,3.4,3.4,5.7,5.7c-2.2,5.7,2.3,12.7-3,18.7c0.8,0.9,1.7,1.8,3.1,3.3
				c-3.5,5.5-5.6,11.6-1.1,15.9c-1,4.5-1.7,7.3-2.1,10.1c-2.1,15.6,3.8,30.8,2.8,46.4c-0.1,0.9,1.7,2,2.4,2.9
				C135.8,561.5,145.3,570.1,144,579.1z M111.2,806.5c0.3-6.8-2.2-14,2.2-20.4c-1-1-1.9-1.9-3.9-3.9c-4.1,0.5-9.1,1-16.3,1.9
				c-2.3-1.4-8.6-1.7-9.9-9.1c-6.7-0.5-11.1-4-14.1-10.9c-2.3-5.2-2.6-9,1.4-13.6c-5.6-7.1-2.5-15.5-1.6-24.3
				c1.9-3.8,6.1-8.5,6.2-13.4c0.1-5.2,7.7-10.2,1-15.6c6.2-10.8-1.9-23.5,4.9-34.3c0.8-1.3,0.5-3.7,0-5.3c-1-3.2-3.4-5.8-2.7-9.8
				c0.6-3.5,0.1-7.2,0.1-11.1c7.9-5.4,2.9-15.7,7.8-22c-1-4.3-2-8.4-3.1-12.9c2.2-1.5,4-2.8,4.3-3c6.2-15.9,4.3-30.6,4.7-45.1
				c-1.8-3.3-3.6-6.6-5.8-10.6c5.3-6.3,3.7-13.3-0.1-19.8c1.3-1.4,2.2-2.4,2.9-3.2c-4.7-6-1.9-13-2.4-19.5
				c-0.5-6.3-0.1-12.6-0.1-17.6c-1.7-3.4-2.9-5.7-4-7.7c-1.3,1-2.7,2-5.1,3.9c-2.8-7.3-8.5-12.5-7.2-20.4c0.5-2.9,1.9-5.6,2.6-8.4
				c1-3.7,2.3-7.4,2.6-11.1c0.3-3.6,2.8-7.5,2.4-9.7c-1.3-6.9,3.6-11,6.3-15.3c5.2-8.5,15.4-10,24.4-12.4c3.8-1,8.1-0.2,13.2-0.2
				c-1.1-9.8,3.9-18.6,3-28.5c-0.7-8.7-4.2-17-3.1-26.1c1-8.5,1.7-17.5-0.2-25.7c-2.1-9.5-4.2-19-6.4-28.5
				c-1.3-5.4-2.4-10.9-2.9-16.5c-1.8-19-3.3-38,1.7-56.8c0.8-3.1,3.7-6.7,6.6-7.9c15.9-7.2,28.6-18.8,42.4-28.9
				c1.6-1.2,4.1-1.1,8-2.1c1.4-1.7,3.9-4.8,6-7.4c8.5,0.5,13.2-4.1,17.4-8.4c1.3-12.2,2.4-24,3.8-35.7c0.4-3.3,1.6-6.6,2.7-9.7
				c4.2-12.1,2.2-24.6,2.7-36.9c0.2-4.2,1.1-8.3,1.8-13.6c-2.1-3.1-4.5-7.8-8-11.4c-3.1-3.3-2.8-7.2-1.8-10
				c2.3-6.3,5.3-12.5,9.2-17.9c5.7-7.8,12.5-14.8,18.8-22c7.5,0,14.8,0,20.8,0c11.9,5.1,19.4,13.3,24.3,24
				c-3.9,6.6-3.8,14.4-7.6,21.4c-3.9,7.2-8.7,12.9-14.1,18.6c0,11.8,0,23.5,0,35.3c0,6.4,1.9,13.6-0.5,18.8c-2.6,5.6-0.7,12-6,16.7
				c8.1,3.2,13.8-1,19.8-2.6c9-2.4,17.2-7.3,27-7.3c3.4,0,6.8-3,11.4-5.2c7.8,0.4,17,0.5,25.2-4.7c0.7-0.4,1.6-0.6,2.4-0.7
				c11.4-0.9,22.8-1.9,34.2-2.7c5.2-0.4,10.2,0.2,15.3-2.6c5.3-3,11.6-3,17.8-3c21.3,0.2,42.6,0.1,63.9,0c2.8,0,5.7-0.9,10-1.6
				c11.8,4,25.3,8.5,38.6,12.9c5.4-5.1,4.7-11.3,4.7-17.4c0-13.6,0-27.2,0-40.7c-3.6-4.9-7.1-9.7-10-13.7c1.2-7.8,3.8-14.4,8.3-20.6
				c15.6-7,31-2.5,47.6,3.4c3,3.1,7,7.4,11.2,11.8c0,7.7,0,15.9,0,25.3c-4.6,5.2-9.9,11.1-15.9,17.9c-0.9,5.6-0.9,12.7-3.3,19
				c-2.6,6.9-2.1,13.8-2.5,20.7c-0.5,6.9,2.2,14.3-2.9,20.9c6.1,7.6,2.3,14.3-2,20.4c2.6,10.1,5.3,19.8,7.7,29.7
				c1.2,5,1,10.5,3,15.1c2,4.6,2.1,9.2,2.6,13.9c0.5,4.3,0.8,8.8,2.5,13c0.3,0.8,0,1.8,0,2.7c0,28.1,2.2,56.4-0.7,84.2
				c-2.5,24.2-0.7,48.3-2,72.3c-0.1,2.2,0,4.4,0,5.8c2.5-2.5,5.2-5.2,7.9-7.9c0.5,0.7,1,1.3,1.6,2c4.1-1,8.3-2,13.2-3.2
				c14.2,5.1,24.1,16.2,31.7,29.7c7.8,13.7,8.7,19.3,7.7,37.7c-3.3,4.2-5.4,7-7.7,9.9c0,37.8-0.1,75.9,0.1,113.9
				c0,5.5,0.2,12,3,16.3c3.8,5.8,3.3,11.9,1.5,16.5c-1.7,4.4-1.1,11-7.2,13.3c-4.6,10.7-14.3,12.2-23.9,12.9
				c3.8,15.3,10.3,29.5,12.6,44.8c2.3,15.4,7.2,30.5,5.3,47.9c9.1-2.8,16.9-5.9,24.9-7.6c7.9-1.7,16.2-2.1,25.8-3.2
				c8.4,4.8,19.4,0,29.5,2.1c11.8,6,22.8,13.8,35.1,17.4c9.6,2.8,19.1,8,29.9,6.9c2.3-0.2,4.8,1.4,7.9,2.5c3.4-1.5,7.7-5.2,11.8-4.9
				c8.1,0.6,12.6-5.1,18.5-8.2c7.5-3.9,13.7-9.6,22.3-11.8c5.9-1.5,10-8,16.9-8.3c7-7.6,16.2-7.5,25.4-7.4c4.9,2.6,9.8,5.1,14.2,7.4
				c7.6,1.3,14.9,2.6,21.8,3.8c3.9-3.9,7.1-7.9,11-10.8c6.1-4.6,12.6-9.7,20.9-8.4c6.2,1,11.7-4.2,18.1-0.9c1.6,0.8,5.3-2.5,7-1.7
				c5.5,2.4,10.9,4.4,16.8,5.6c1.8,0.3,3.3,2.2,4.7,4c0.3,0.3,0.5,0.7,0.8,1c0.4,0.5,0.8,1,1.2,1.4c0,2.7,0,5.4,0,8.6
				c7.6,2.1,15.3,4.2,23.1,6.4c1.1,2.2,2.3,4.4,3.5,6.8c-0.9,1.8-1.9,4-3.2,6.7c-8.2,0-16.7,0-25.4,0c-0.3,1.6-0.6,2.9-1,5.1
				c7.3,0,14.4,0,21.4,0c1.5,6.7,2.8,12.4,4.3,18.9c-8.7,0-16.2,0-22.4,0c-5.1,3.6-9,6.3-13.2,9.2c-0.4,10.7-8.2,13.9-17.2,16.2
				c-4.9-3.8-9.5-9.9-14.6-10.5c-6.6-0.7-10.2-5.8-16.4-7c-7.4-1.4-14.1-7.4-20.7-12c-2.2-1.5-3.2-4.9-4.5-7.1
				c-6.7-3.9-14.3-3.5-20.8-6.8c-2.5-1.3-6.4-1.2-9.2-0.3c-4.1,1.4-7.9,3.1-12.5,2.6c-4.3-0.5-8.2,2.1-12.3,3.1
				c-5.9,1.4-11.3,5.7-16.5,9.2c-19.4,13.3-36.9,20.2-58.5,23c-3.8,0.5-7.4,2.3-11.1,2.6c-9.2,0.7-18.1-0.2-26.5-4.8
				c-4-2.1-9-2.1-13.5-3.4c-2-0.5-3.9-1.6-5.7-2.6c-12.5-6.8-24.7-14.3-39.4-18.7c-13,5-29.3-0.4-43.2,9.4c-0.7,1.6-1.9,4.3-3.4,7.8
				c4.4,6.2,4.2,14.9,10.2,21.1c1.5,1.6,1.4,4.8,2.1,7.2c0,0.1,4.4,29.4,4.4,29.4c-4.2,8.7-5.1,18.6-10.8,26.8
				c-3.3,4.7-5,10.6-7.2,15.5c-9.3,3.4-17.8,8.8-26.6,9.4c-14.5,1-26.1,10.2-40.2,11.8c-2.6,0.3-5,2.6-8.7,4.7
				c2.1,2.1,3.9,3.8,5.6,5.6c-0.7,0.1-1.9,0.4-2.8,0.6c-2.1,4.2-4.2,8.4-7.5,14.9c-0.1,1.5,6.6,5.1,1.1,10.3
				c-3.2,3.1-4.8,7.8-7,11.7c-5.6,2.9-11.3,5.7-18.1,9.2c-7.1,0.3-16.3-1.9-23.4,5.4c-11.5,0.7-22.6-0.6-32-7.9
				c-3-2.3-5.7-3.8-8.4-3c-7.3-9.6-13.9-18.2-20.7-27.2c-10.9,1.2-21.1,2.4-32.6,3.8c-6.4,6.9-0.8,16.5-3.1,25.2
				c-1,1-2.3,2.3-3.6,3.6c-1.7,0-3.5,0-5.7,0c-1.2-1.4-2.7-3.1-3.6-4.1c-20.8-3.6-40.8-7.1-61.6-10.7c-3.9,16.4-15.5,25.3-24,31.1
				c-11.8,5.5-19.7,9.3-28.5,13.4c-24.4,3.3-45.7-2.5-58.5-28.8c-0.4-0.1-2-0.5-3.4-1.3c-0.8-0.4-1.5-1.1-1.7-1.3c0,0,0,0,0.1,0
				c-0.1-0.1-0.1-0.1-0.1,0c-6.1,0.7-11,0.5-15.2,2c-4.2,1.5-8.6,1.6-12.4,2.9c-4.3,1.6-6.7-5.5-10.4-1.1
				c-6.2-4.6-14.6,0.8-20.6-4.8c-13.8-0.8-17.3-12.3-22-22c-2.6-5.3-3.5-11.5-3.1-17.8c0.6-8.1-0.2-16.3,0.3-24.4
				c0.4-7-1.6-14,1.9-20.9c3.1-6.2-2-14.2,3.5-20.3c-1.1-6,2.3-12.5-2.3-18.1c1.5-2.7,3.2-5.6,5.1-8.9
				C109.8,820.7,110.9,813.5,111.2,806.5z M492.1,710.1c-4.4-1.2-7.5-2.1-10.4-2.9c-2.2,1.1-4.3,2.3-6.5,3.4
				c0.2,2.3,0.3,4.4,0.5,6.9c3,0,5.1,0,8.2,0c0,5.6,0,10.8,0,18.7C489.9,726.7,490.8,718.7,492.1,710.1z"/>
		</g>
		<g>
			<path fill="none" stroke="#000000" stroke-width="0.5" stroke-linecap="round" stroke-linejoin="round" d="M484.5,599.9
				c-0.2-0.2-0.3-0.3-0.5-0.5c-0.2-0.2-0.3-0.3-0.5-0.5c0-4.1,0-8.2,0-12.1s0-7.6,0-11c-3.1-7.8-6.9-13.6-8.7-21
				c-2-8.3-8.4-15.4-12.4-23.3c-3.9-7.8-10.4-12-20-15.2c-11.2-0.3-24.4-7.4-37.7-0.3c-4.6-3.7-10.5-4.2-15-2.3
				c-9.1,3.8-18.2,4.7-27.8,5.2c-6.7,0.4-13.4,2.5-20,4.2c-6.4,1.7-42.2,1.1-49.1-0.5c-3.2-0.8-7.3-1.3-9.9,0.1
				c-5.3,2.7-11.7,3-15.4,0.9c-5.5-3.1-10.5-0.8-15.2-2.3c-6.4-2.7-12.4-7.2-18.8-7.6c-1.8-0.1-3.5-0.4-5.2-0.8
				c-0.7-0.2-1.4-0.4-2-0.5c-0.7-0.2-1.4-0.4-2-0.6c-1.4-0.5-2.8-1-4.3-1.6c-0.8-0.3-1.6-0.6-2.4-0.9c-0.5-0.2-1-0.4-1.5-0.6
				c-0.6-0.2-1.1-0.4-1.7-0.6c-1.7-0.6-3.3-1.2-5-1.7c-1-0.3-2-0.5-3-0.7c-0.1,0-0.2,0-0.3-0.1c-3.1-0.6-6.3-0.7-9.7,0
				c-2.2,1.4-4.3,2.8-6.5,4.1c-2.1,1.4-4.3,2.7-6.4,4.1c-2.1,1.4-4.2,2.7-6.3,4"/>
			<path fill="none" stroke="#000000" stroke-width="0.5" stroke-linecap="round" stroke-linejoin="round" d="M444.6,796.4
				c4.7,6.3,8.7-0.8,13-0.4c4.2,0.4,8.3,1.1,14.1,1.9c0.6-0.3,2.9-1.4,6.4-3.1c0-1.2-0.9-4,0.1-5.4c9.7-13.8,12.4-30.3,17.7-45.7
				c2.2-6.3,3.7-12.9,6.7-19c2.8-5.7,3.3-12.2,5-18.3c1.7-5.9,5.5-10.5,6.9-16.2c0.5-2,1.4-4,2.3-6.2c-4.1-5.4-9.2-7.8-15.7-7.8
				c-9.9,0.1-19.9,0-30.7,0c-0.1-2.2-0.3-4.3-0.4-6.3c4.8-7.4,12.4-8.9,20.2-10c6.9-1,13.7-2.2,20.6-2.6c7.2-0.4,14.5,0.2,21.7-0.2
				c3.3-0.2,6.5-1.9,9.8-2.6c3.3-0.7,6.7,0.6,10.2-1.8c2.5-1.8,6.8-0.9,10.8-1.2c10.7,8.7,14.6,20.6,15.5,33.9
				c0.8,11.4,1.6,22.8,2.8,34.2c0.3,2.8,2.4,5.3,3.6,8c2.7,6.2,2.3,14-1,21.3c2.5,7.2,5.9,14.1,5.7,22.2c-0.1,4.5,2.1,9,3.4,13.4
				c1.4,4.8,2.3,10,4.7,14.3c2.5,4.4,4.9,8.8,6.9,13.5c4.9,11.4,4.2,23.4,3.4,35.1c-0.3,4.6-4.1,9.1-6.3,13.6
				c-0.7,1.5-1.4,3.1-1.6,3.7c-5.9,4.1-11.4,7.5-16.2,11.6c-4.5,3.8-9.4,5.2-14.9,6.9c-10.6,3.3-21.6,4.5-32,8
				c-9.1,3.1-18,5.3-27.7,5.4c-7.3,0.1-15,0.6-21.8,3c-3.4,1.2-6.5,2.4-9.9,2.2c-13.3-1.1-25.4,4.1-37.9,7.1
				c-6.1,1.5-12.9,1.3-17.6,6.6c-13.2-0.6-25.8,1.7-38.5,7.5c-1.1-4.1-3.3-8.7-3.3-13.4c0-5,0.6-10.8,3.2-14.8
				c2.9-4.5,0.7-8.7,2.5-13.2c2.4-1.8,5.3-3.9,8.3-6.1c-1.6-2.7-2.6-4.5-3.6-6.2c2.9-4.6,6.2-8.6,8.1-13.3c1.7-4.2,2-9,2.8-13.1
				c6.7-2,11.8,0.7,17.3,1.5c4.7,0.7,9.8-2,15.1-3.3c0-5.9,0-12.2,0-17.7c2.3-4.4,4.3-8.2,6.1-11.6c-1.3-4.2-2.5-7.8-3.6-11.4
				C439.4,799.1,441.6,797.9,444.6,796.4z"/>
			<path fill="none" stroke="#000000" stroke-width="0.5" stroke-linecap="round" stroke-linejoin="round" d="M160.3,942.4
				c-1.8,0.1-3.9,0.4-5.5,0.4c-5,0-10,0-15,0c-3.9-7-14.5-4.3-17.6-13c-0.9-4-2.3-8.6-2.7-13.2c-0.4-5.3-1.8-11.8,0.6-15.9
				c2.8-4.9,0.7-9.6,2.6-14.5c1.9,0,4,0,5.9,0c0.8-1.2,1.6-1.9,1.6-2.6c-0.8-10.9-2.3-21.9-2.5-32.8c-0.4-18.5-0.1-37.1-0.2-55.6
				c0-2.9-0.9-5.7-1.5-9.7c0.1-0.1,1.3-1.4,2.9-3c13.6,0,27.6-0.2,41.6,0.1c4.2,0.1,8.3,1.5,12.4,2.6c4.3,1.2,7.9-2.9,12.9-0.4
				c3.6,1.8,8.9,0.4,13.4,0.4c5,0,10,0.3,14.9-0.1c4.6-0.3,9.8,2,13.7-2.5c3.9,4.6,9.9,3.7,13.7,2.2c9.6-3.8,19.4-1,28.8-2.6
				c5.4-0.9,9.8,3.3,15.6,0.6c4.5-2.1,9.4,4.2,15,2.5c0.6-0.2,1.9,1.6,2.8,2.5c1-0.9,2-1.8,3.3-3c8.3,5.9,18,1.7,27,3.5
				c1.2,1.3,2.6,2.5,3.6,4c0.4,0.6,0,1.7-0.1,2.7c-4.7,2-9.2,1.7-13.6-1.9c-0.9,0.7-1.9,1.9-3,2c-4.4,0.5-8.8,1.1-13.2,0.8
				c-3.8-0.2-8.2,2.1-11.4-1.8c-3.8,2.2-8.5,3.4-11.8,1.3c-3-2-5.7-2-8.7-2c-17.6-0.1-35.3-0.4-52.9,0.1c-8.2,0.3-16.2,2.7-24.7,2.8
				c-8.2,0.1-17-3.3-24.8,2.2c-3.5-3.8-8.1-2.1-12.4-2.5c-5.8-0.5-11.3,0.2-16.2,3.9c-0.9,8.3,2.2,17.8-5.6,24.7c0,2.7,0,5.4,0,8.9
				c7.6,0.5,14.9,7.7,25.1-2.7c-1.9,7.8-1.9,12.7-4.2,16c-8.6,12.1-10.5,26.6-14.6,40.1c-3.6,11.9-2.7,25.2-3.5,37.9
				c-0.1,0.9,1.6,2,2.5,3c-3.8,3.8-4,7.5,1.2,11.8c1.5,0.7,3,0.9,4.5,0.8c3.9-0.3,7.6-2.9,11.5-4.9c9.9,0.8,19.6,6.9,31.7,3.1
				c0.2,0.1,1.9,1.1,3.5,2c1.5-1.4,2.4-2.3,3.6-3.3c8.7,5.4,18.8,1.4,28.2,4.8c-1.9,0.2-3.8,0.6-5.7,0.7
				c-13.6,0.9-27.3,1.9-40.9,2.7c-5,0.3-10.2,6.1-14.7,1.9c-4.1-3.8-9.8,0.5-13.5-4.3C163.3,942.4,161.9,942.3,160.3,942.4z"/>
		</g>
	</g>
</g>
</svg>
